<svg width="41" height="48" viewBox="0 0 41 48" fill="none" xmlns="http://www.w3.org/2000/svg">
<path d="M33.6989 46.08C31.0855 48.6133 28.2322 48.2133 25.4855 47.0133C22.5789 45.7867 19.9122 45.7333 16.8455 47.0133C13.0055 48.6667 10.9789 48.1867 8.68554 46.08C-4.32779 32.6667 -2.40779 12.24 12.3655 11.4933C15.9655 11.68 18.4722 13.4667 20.5789 13.6267C23.7255 12.9867 26.7389 11.1467 30.0989 11.3867C34.1255 11.7067 37.1655 13.3067 39.1655 16.1867C30.8455 21.1733 32.8189 32.1333 40.4455 35.2C38.9255 39.2 36.9522 43.1733 33.6722 46.1067L33.6989 46.08ZM20.3122 11.3333C19.9122 5.38667 24.7389 0.48 30.2855 0C31.0589 6.88 24.0455 12 20.3122 11.3333Z" fill="#383838"/>
</svg>
