<svg width="62" height="62" viewBox="0 0 62 62" fill="none" xmlns="http://www.w3.org/2000/svg">
<g clip-path="url(#clip0_663_1535)">
<path d="M19.0268 35.3532L26.6506 42.977L23.9704 45.6572L16.3466 38.0334L19.0268 35.3532ZM36.7462 0.480332C39.0293 0.480332 41.2232 0.768209 43.3276 1.34396C45.4321 1.91972 47.4076 2.75357 49.2539 3.84552C51.1003 4.93746 52.768 6.22795 54.2571 7.71697C55.7461 9.20599 57.0366 10.8737 58.1285 12.7201C59.2205 14.5665 60.0543 16.5419 60.6301 18.6464C61.2058 20.7509 61.5036 22.9546 61.5235 25.2576C61.5235 28.1563 61.047 30.9258 60.094 33.5664C59.141 36.2069 57.8108 38.5992 56.1034 40.7434C54.396 42.8876 52.3511 44.7142 49.9687 46.223C47.5862 47.7319 44.9953 48.804 42.196 49.4393C42.3747 50.9085 42.464 52.3776 42.464 53.8468C42.464 54.8991 42.2655 55.8818 41.8684 56.7951C41.4713 57.7083 40.9254 58.5223 40.2305 59.2371C39.5356 59.9518 38.7315 60.4978 37.8183 60.875C36.905 61.2522 35.9123 61.4507 34.8402 61.4706C31.6835 61.4706 28.6459 61.0636 25.7274 60.2496C22.8089 59.4356 20.0691 58.2841 17.508 56.7951C14.9469 55.3061 12.634 53.5192 10.5692 51.4346C8.50442 49.35 6.7176 47.037 5.20873 44.4958C3.69985 41.9545 2.54834 39.2246 1.7542 36.3062C0.960056 33.3877 0.553057 30.3401 0.533203 27.1636C0.533203 26.1113 0.731739 25.1286 1.12881 24.2153C1.52588 23.302 2.07186 22.4881 2.76673 21.7733C3.46161 21.0586 4.26568 20.5126 5.17895 20.1354C6.09221 19.7582 7.08489 19.5596 8.15699 19.5398C9.62615 19.5398 11.0953 19.6291 12.5645 19.8078C13.1998 16.9886 14.2719 14.3977 15.7808 12.0351C17.2896 9.67255 19.1162 7.63756 21.2604 5.93015C23.4046 4.22274 25.7969 2.88262 28.4374 1.90979C31.078 0.936964 33.8475 0.460478 36.7462 0.480332ZM47.2884 17.4254C48.2414 18.1203 49.2837 18.6464 50.4154 19.0037C51.547 19.3611 52.7085 19.5398 53.8997 19.5398C54.8924 19.5398 55.8652 19.4207 56.8182 19.1824C56.4211 17.8324 55.885 16.5419 55.21 15.311C54.535 14.08 53.7508 12.9285 52.8574 11.8564L47.2884 17.4254ZM50.1474 9.14643C49.0753 8.25302 47.9237 7.4688 46.6928 6.79378C45.4619 6.11875 44.1714 5.58271 42.8214 5.18564C42.5831 6.13861 42.464 7.11143 42.464 8.10411C42.464 9.29533 42.6427 10.4568 43.0001 11.5884C43.3574 12.7201 43.8835 13.7624 44.5784 14.7154L50.1474 9.14643ZM39.0988 4.44113C38.7018 4.38156 38.3146 4.34186 37.9374 4.322C37.5602 4.30215 37.1631 4.29222 36.7462 4.29222C34.2843 4.29222 31.9118 4.70915 29.6287 5.543C27.3455 6.37685 25.2509 7.58792 23.345 9.17621L36.7462 22.5774L41.8684 17.4552C40.8162 16.125 40.022 14.6657 39.486 13.0774C38.9499 11.4892 38.672 9.83138 38.6521 8.10411C38.6521 6.85334 38.801 5.63234 39.0988 4.44113ZM20.635 11.8564C19.5827 13.1072 18.6893 14.4573 17.9547 15.9066C17.2202 17.3559 16.6742 18.8945 16.3168 20.5225C19.0368 21.1579 21.6475 22.1406 24.1491 23.4708C26.6506 24.801 28.9437 26.3992 31.0283 28.2654L34.0659 25.2576L20.635 11.8564ZM34.8402 57.6587C35.3763 57.6587 35.8726 57.5594 36.3292 57.3609C36.7859 57.1624 37.183 56.8943 37.5205 56.5568C37.858 56.2193 38.1359 55.8123 38.3543 55.3358C38.5727 54.8593 38.672 54.363 38.6521 53.8468C38.6521 51.0475 38.2948 48.3474 37.58 45.7465C36.8653 43.1457 35.8329 40.7236 34.4829 38.4801C33.1328 36.2367 31.5445 34.1818 29.718 32.3156C27.8915 30.4493 25.8366 28.8511 23.5535 27.5209C21.2703 26.1907 18.8382 25.1683 16.2573 24.4536C13.6763 23.7388 10.9762 23.3715 8.15699 23.3517C7.62094 23.3517 7.1246 23.4509 6.66797 23.6495C6.21133 23.848 5.81426 24.116 5.47675 24.4536C5.13924 24.7911 4.86129 25.1981 4.6429 25.6746C4.42451 26.151 4.32524 26.6474 4.34509 27.1636C4.34509 29.9629 4.70246 32.663 5.41719 35.2638C6.13192 37.8647 7.16431 40.2868 8.51435 42.5303C9.8644 44.7737 11.4527 46.8286 13.2792 48.6948C15.1057 50.561 17.1606 52.1593 19.4438 53.4894C21.7269 54.8196 24.159 55.8421 26.74 56.5568C29.3209 57.2716 32.021 57.6389 34.8402 57.6587ZM33.7384 30.9755C35.6046 33.0601 37.2028 35.3532 38.533 37.8547C39.8632 40.3563 40.8459 42.967 41.4813 45.687C43.0894 45.3296 44.6181 44.7836 46.0674 44.0491C47.5168 43.3145 48.8767 42.4211 50.1474 41.3688L36.7462 27.9379L33.7384 30.9755ZM52.8276 38.6588C54.396 36.7727 55.5972 34.6881 56.431 32.4049C57.2649 30.1218 57.6917 27.7393 57.7116 25.2576C57.7116 24.8606 57.7016 24.4734 57.6818 24.0962C57.6619 23.719 57.6222 23.3219 57.5627 22.905C56.3715 23.2028 55.1505 23.3517 53.8997 23.3517C52.1923 23.3517 50.5444 23.0837 48.9561 22.5476C47.3678 22.0116 45.8987 21.2075 44.5486 20.1354L39.4264 25.2576L52.8276 38.6588Z" fill="#383838"/>
</g>
<defs>
<clipPath id="clip0_663_1535">
<rect width="60.9903" height="60.9903" fill="white" transform="translate(0.533203 0.480225)"/>
</clipPath>
</defs>
</svg>
