<svg width="81" height="81" viewBox="0 0 81 81" fill="none" xmlns="http://www.w3.org/2000/svg">
<path d="M40.5 70.875C57.2757 70.875 70.875 57.2757 70.875 40.5C70.875 23.7244 57.2757 10.125 40.5 10.125C23.7244 10.125 10.125 23.7244 10.125 40.5C10.125 57.2757 23.7244 70.875 40.5 70.875Z" stroke="#383838" stroke-width="4" stroke-miterlimit="10" stroke-linecap="round"/>
<path d="M40.498 27.7006L28.4604 37.7987M40.498 27.7006L52.5357 37.7987M40.498 27.7006V18.5928M28.4604 37.7987L31.6387 50.6163M28.4604 37.7987L20.0962 34.2549M31.6387 50.6163H49.3574M31.6387 50.6163L27.209 58.21M49.3574 50.6163L52.5357 37.7987M49.3574 50.6163L53.7871 58.21L49.3574 69.4425M52.5357 37.7987L60.8999 34.2549M60.8999 34.2549L64.9784 22.665M60.8999 34.2549L70.7148 42.7014M20.0962 34.2549L16.0177 22.665M20.0962 34.2549L10.2812 42.7014M40.498 18.5928L50.623 11.847M40.498 18.5928L30.373 11.8455M64.9784 58.21H54.1035M27.209 58.21L31.6972 69.5216M27.209 58.21H16.0762" stroke="#383838" stroke-width="4" stroke-linecap="round" stroke-linejoin="round"/>
</svg>
