<svg width="220" height="210" viewBox="0 0 220 210" fill="none" xmlns="http://www.w3.org/2000/svg">
<rect width="220" height="210" rx="8" fill="#F1F2F4"/>
<path d="M107.497 129.64L87.1759 87.3342C83.28 79.2233 85.8237 69.4704 93.1833 64.3009C100.543 59.1313 110.549 60.0692 116.814 66.5158L148.813 99.4413C155.661 106.487 160.675 115.113 163.416 124.561L165.927 133.214C168.316 141.45 165.207 150.302 158.196 155.227L155.498 157.122C148.302 162.177 138.662 161.928 131.745 156.509L124.564 150.883C117.324 145.21 111.484 137.942 107.497 129.64Z" fill="#F1F2F4" stroke="#E82525" stroke-width="4"/>
<path d="M104.814 124.018C116.906 151.38 166.822 118.807 145.167 95.6732" stroke="#E82525" stroke-width="4"/>
<path d="M97.6803 58.888C79.8028 66.8003 62.6236 58.888 66.1305 47.2836C69.1592 37.2615 87.1638 39.8985 97.6803 58.888Z" stroke="#E82525" stroke-width="4"/>
<path d="M97.9353 58.2254C116.463 64.4537 132.843 54.989 128.287 43.7576C124.351 34.0577 106.665 38.3457 97.9353 58.2254Z" stroke="#E82525" stroke-width="4"/>
<path d="M74.8937 121.581L82.4491 75.1606C83.8923 66.2936 91.5511 59.7805 100.535 59.7805C109.518 59.7805 117.177 66.2936 118.62 75.1606L126.019 120.619C127.595 130.302 126.773 140.223 123.625 149.513L120.719 158.089C117.968 166.207 110.349 171.67 101.777 171.67H98.5323C89.7337 171.67 81.9686 165.92 79.4021 157.504L76.7238 148.722C74.044 139.934 73.4179 130.649 74.8937 121.581Z" fill="#F1F2F4" stroke="#E82525" stroke-width="4"/>
<path d="M75.9177 115.39C70.1778 144.761 129.691 146.801 125.18 115.39" stroke="#E82525" stroke-width="4"/>
<path d="M70.647 85.2969L68.6995 84.8414L70.647 85.2969ZM40.6329 98.571C39.5851 98.2215 38.4523 98.7875 38.1028 99.8353C37.7532 100.883 38.3193 102.016 39.3671 102.365L40.6329 98.571ZM99.4825 57.0272C95.8785 57.6274 89.5129 58.8546 83.3815 62.8127C77.1877 66.811 71.3472 73.5216 68.6995 84.8414L72.5944 85.7524C74.9976 75.4776 80.1966 69.6297 85.5509 66.1733C90.9676 62.6765 96.6586 61.5526 100.14 60.9728L99.4825 57.0272ZM68.6995 84.8414C67.3792 90.4866 65.3782 94.188 63.1387 96.5901C60.918 98.9718 58.3642 100.183 55.721 100.695C50.2877 101.746 44.4947 99.8594 40.6329 98.571L39.3671 102.365C43.0846 103.606 49.8623 105.903 56.4811 104.622C59.864 103.967 63.2067 102.383 66.0643 99.3178C68.9029 96.2733 71.1619 91.8772 72.5944 85.7524L68.6995 84.8414Z" fill="#E82525"/>
</svg>
