<svg width="220" height="210" viewBox="0 0 220 210" fill="none" xmlns="http://www.w3.org/2000/svg">
<rect width="220" height="210" rx="8" fill="#F1F2F4"/>
<path d="M77.9286 150.296H90.0113C93.5016 150.296 96.9732 149.79 100.316 148.796L137.582 137.709C139.254 137.212 140.99 136.959 142.735 136.959H179.998C179.998 131.099 178.179 119.01 177.034 112.845C176.702 111.054 175.119 109.808 173.283 109.808H148.327C144.421 109.808 140.628 111.08 137.44 113.319C134.075 115.681 129.406 118.833 124.892 121.467C118.272 125.329 106.386 131.022 106.386 131.022M55.8108 159.376H91.4892C94.8765 159.376 98.2467 158.9 101.499 157.962L137.651 147.541C139.277 147.073 140.963 146.835 142.656 146.835H180M180 146.835V137.221M180 146.835L176.014 158.837H148.502L145.365 146.835M41.481 154.105C36.2648 141.82 45.9655 126.155 52.9368 118.064C53.857 116.996 55.5919 117.285 56.4606 118.395C59.8057 122.668 67.1918 126.686 79.1366 119.875C92.4482 112.284 95.6422 87.8508 100.809 71.463C101.576 69.0306 102.99 66.8658 104.797 65.0541L120.658 49.1552C121.866 47.9445 123.727 47.6305 125.218 48.4759C133.806 53.346 142.575 61.1678 144.751 63.8648L117.958 91.8339C116.959 92.8771 116.091 94.0366 115.373 95.2872L100.381 121.416C96.4875 128.202 90.4511 133.528 83.2027 136.574L41.481 154.105ZM41.481 154.105L44.3073 160.056C45.0665 161.565 46.7871 162.344 48.4143 161.854C60.92 158.087 80.2302 149.568 93.528 142.928C99.487 139.952 104.24 135.122 107.445 129.319L122.259 102.493C122.86 101.405 123.601 100.4 124.464 99.503L151.405 71.5137M144.75 63.8648L151.405 71.5137M151.405 71.5137L157.651 83.0639L139.786 100.789L127.214 96.6466" stroke="#383838" stroke-width="4"/>
</svg>
