<svg width="62" height="62" viewBox="0 0 62 62" fill="none" xmlns="http://www.w3.org/2000/svg">
<path d="M22.6871 54.0369C22.4095 53.7603 22.0335 53.605 21.6416 53.605C21.2497 53.605 20.8738 53.7603 20.5961 54.0369C18.6248 56.0082 17.6391 56.9939 16.4141 56.9939C15.1892 56.9939 14.2035 56.0082 12.2321 54.0369L4.27567 45.844C4.27567 44.619 6.07595 43.4566 8.0473 41.4852M22.6871 54.0369L24.781 56.1279C26.7352 58.0821 27.7123 59.0593 28.8604 59.3669C29.6125 59.5663 30.4044 59.5663 31.1565 59.3669C32.3045 59.0593 33.2817 58.0821 35.2359 56.1279C37.1902 54.1736 38.1702 53.1937 38.475 52.0456C38.6775 51.2936 38.6775 50.5015 38.475 49.7495C38.1702 48.6014 37.193 47.6243 35.2359 45.6701L32.1023 42.5336M22.6871 54.0369L15.3686 46.7127L5.9563 37.3032C4.00205 35.349 3.02492 34.3719 2.71726 33.2238C2.51612 32.4717 2.51612 31.6799 2.71726 30.9277C3.02492 29.7796 4.00205 28.8025 5.9563 26.8483C7.91056 24.894 8.89053 23.914 10.0386 23.6092C10.7907 23.407 11.5826 23.407 12.3347 23.6092C13.4827 23.914 14.4599 24.8912 16.4141 26.8483L19.5506 29.9819L30.0056 19.5269M32.1023 42.5336L42.5573 32.0786L45.6938 35.2122C47.648 37.1693 48.6251 38.1465 49.7732 38.4513C50.5252 38.6538 51.3173 38.6538 52.0693 38.4513C53.2173 38.1465 54.1973 37.1665 56.1516 35.2122C58.1058 33.258 59.083 32.2809 59.3906 31.1328C59.59 30.3807 59.59 29.5888 59.3906 28.8367C59.083 27.6887 58.1058 26.7115 56.1516 24.7573L54.0606 22.6634M32.1023 42.5336L25.8265 36.2577L19.5506 29.9848M41.5118 8.02362C43.4831 6.05227 44.4688 5.0666 45.6938 5.0666C46.9187 5.0666 47.9044 6.05227 49.8786 8.02362L57.2627 16.2168C57.2627 17.4418 56.0319 18.6011 54.0606 20.5724C53.784 20.8501 53.6287 21.226 53.6287 21.6179C53.6287 22.0098 53.784 22.3858 54.0606 22.6634M54.0606 22.6634L46.7393 15.3449L37.3269 5.93262C35.3727 3.97837 34.3955 3.00124 33.2475 2.69358C32.4953 2.49244 31.7035 2.49244 30.9514 2.69358C29.8033 3.00124 28.8262 3.97837 26.872 5.93262C24.9177 7.88688 23.9377 8.86685 23.6329 10.0149C23.4304 10.7669 23.4304 11.559 23.6329 12.311C23.9377 13.4591 24.9148 14.4362 26.872 16.3904L30.0056 19.5269M30.0056 19.5269L36.2814 25.8028L42.5573 32.0758" stroke="#383838" stroke-width="4" stroke-linecap="round" stroke-linejoin="round"/>
</svg>
