<svg width="1856" height="342" viewBox="0 0 1856 342" fill="none" xmlns="http://www.w3.org/2000/svg">
<path fill-rule="evenodd" clip-rule="evenodd" d="M95.9068 77.6077C95.9068 55.2462 105.362 51.3 125.624 51.3H172.902V289.385H95.9068V77.6077ZM1683.1 51.3H1745.23V336.738H1792.51C1793.86 336.738 1795.21 336.738 1795.21 334.108V51.3H1856V1.31538H1683.1V51.3ZM780.763 60.5077V277.546C780.763 282.808 780.763 286.754 782.114 290.7C782.114 292.015 783.464 294.646 783.464 295.962C787.517 311.746 801.025 324.9 817.234 331.477C823.988 334.108 833.444 336.738 842.9 336.738H891.528C915.843 336.738 936.105 324.9 946.911 303.854C955.016 288.069 952.314 267.023 952.314 248.608H906.387C900.984 248.608 906.387 260.446 900.984 274.915C896.932 284.123 891.528 286.754 880.722 286.754H851.004C836.146 286.754 829.392 276.231 829.392 263.077V76.2923C829.392 68.4 832.093 60.5077 834.795 56.5615C841.549 48.6692 865.863 51.3 878.02 51.3C883.424 51.3 887.476 51.3 891.528 52.6154C892.879 53.9308 892.879 52.6154 894.23 53.9308H895.581C898.282 55.2462 899.633 57.8769 899.633 60.5077C905.036 71.0308 902.335 78.9231 905.036 89.4462H952.314C952.314 57.8769 956.367 31.5692 926.649 11.8385C917.194 5.26154 903.686 1.31538 891.528 1.31538H838.847C825.339 1.31538 814.533 6.57692 805.077 11.8385C790.218 21.0462 780.763 40.7769 780.763 60.5077ZM1568.28 149.954H1516.95V51.3H1564.23C1585.84 51.3 1592.59 57.8769 1592.59 81.5538C1592.59 97.3385 1595.3 131.538 1587.19 143.377C1583.14 148.638 1577.74 149.954 1568.28 149.954ZM1468.32 336.738H1514.25C1515.6 336.738 1516.95 336.738 1516.95 334.108V201.254H1583.14C1606.1 201.254 1626.36 186.785 1633.12 172.315C1638.52 163.108 1639.87 155.215 1639.87 139.431V52.6154C1638.52 42.0923 1635.82 32.8846 1629.07 23.6769L1619.61 13.1538C1610.15 5.26154 1593.94 0 1581.79 0H1468.32V336.738ZM1006.35 336.738H1054.98V53.9308C1054.98 52.6154 1054.98 51.3 1057.68 51.3H1131.97V336.738H1177.9C1179.25 336.738 1180.6 336.738 1180.6 334.108V2.63077C1180.6 1.31538 1180.6 0 1177.9 0H1006.35V336.738ZM544.373 2.63077V339.369C544.373 340.685 544.373 342 547.074 342H594.352V202.569H671.348V339.369C671.348 340.685 671.348 342 674.049 342H721.328V2.63077C721.328 1.31538 721.328 0 718.626 0H674.049C672.699 0 671.348 0 671.348 2.63077V149.954H594.352V0H547.074C544.373 0 544.373 0 544.373 2.63077ZM1279.21 247.292V89.4462C1279.21 76.2923 1279.21 56.5615 1291.37 52.6154C1299.47 49.9846 1341.35 49.9846 1349.45 51.3C1361.61 53.9308 1364.31 68.4 1364.31 80.2385V253.869C1364.31 263.077 1362.96 277.546 1354.85 281.492C1346.75 285.438 1314.33 284.123 1302.17 284.123C1298.12 284.123 1292.72 282.808 1290.01 281.492C1280.56 277.546 1279.21 259.131 1279.21 247.292ZM1230.58 61.8231V276.231C1230.58 281.492 1231.93 284.123 1231.93 289.385C1233.28 299.908 1240.04 311.746 1248.14 319.638C1256.24 327.531 1267.05 332.792 1277.86 335.423C1290.01 338.054 1335.94 336.738 1350.8 336.738C1367.01 336.738 1383.22 330.162 1395.38 319.638C1400.78 314.377 1406.18 306.485 1408.89 298.592C1410.24 295.962 1410.24 294.646 1410.24 293.331C1411.59 289.385 1411.59 284.123 1411.59 280.177V57.8769C1411.59 35.5154 1398.08 14.4692 1376.47 6.57692C1368.36 3.94615 1361.61 1.31538 1352.15 1.31538H1288.66C1269.75 1.31538 1249.49 11.8385 1238.68 27.6231C1234.63 36.8308 1230.58 51.3 1230.58 61.8231ZM343.103 255.185V84.1846C343.103 60.5077 347.156 51.3 368.769 51.3H402.539C411.994 51.3 418.748 52.6154 422.801 57.8769C426.853 63.1385 428.204 72.3462 428.204 80.2385V257.815C428.204 273.6 425.502 286.754 409.293 288.069C395.785 288.069 356.611 292.015 348.507 284.123C345.805 278.862 343.103 267.023 343.103 255.185ZM294.475 60.5077V280.177C294.475 293.331 298.527 305.169 305.281 314.377C306.632 317.008 310.684 320.954 312.035 322.269C324.192 332.792 340.402 339.369 356.611 339.369H414.696C448.466 339.369 478.183 314.377 478.183 282.808V56.5615C478.183 48.6692 475.482 39.4615 472.78 32.8846C463.325 13.1538 439.01 0 413.345 0H362.015C351.208 0 343.103 1.31538 334.999 3.94615C312.035 11.8385 294.475 32.8846 294.475 60.5077ZM47.278 65.7692V289.385C32.4192 289.385 20.262 292.015 12.1572 302.538C2.7016 314.377 0 326.215 0 340.685H267.459C271.511 340.685 270.16 334.108 268.809 331.477C267.459 320.954 266.108 313.062 259.354 305.169C249.898 292.015 236.39 289.385 221.531 289.385V2.63077C221.531 1.31538 221.531 0 218.83 0H109.415C85.1004 0 59.4352 15.7846 51.3304 38.1462C48.6288 46.0385 47.278 55.2462 47.278 65.7692Z" fill="white"/>
</svg>
