<svg width="220" height="210" viewBox="0 0 220 210" fill="none" xmlns="http://www.w3.org/2000/svg">
<g clip-path="url(#clip0_2229_36536)">
<rect width="220" height="210" rx="8" fill="#F1F2F4"/>
<ellipse cx="121.725" cy="85.0615" rx="32" ry="40.5" transform="rotate(41.4292 121.725 85.0615)" stroke="#E82525" stroke-width="4"/>
<path d="M66.3185 162.201L85.0462 140.981C90.7779 134.486 100.075 132.814 108.711 133.497C124.411 134.741 142.074 128.501 154.385 114.551C173.753 92.6044 174.685 61.778 156.465 45.6985C138.245 29.619 107.773 34.3753 88.4048 56.322C76.0939 70.2716 72.0981 88.5732 75.2838 103.997C77.0358 112.481 76.5322 121.914 70.8006 128.409L52.0728 149.629" stroke="#E82525" stroke-width="4"/>
<path d="M64.6348 135.377L78.8979 147.965L55.4868 174.492C54.025 176.149 51.4973 176.307 49.8409 174.845L41.576 167.551C39.9196 166.089 39.7619 163.561 41.2237 161.905L64.6348 135.377Z" stroke="#E82525" stroke-width="4"/>
<path d="M134.086 58.1809L97.0189 100.182M147.053 69.6244L109.986 111.626" stroke="#E82525" stroke-width="4" stroke-linecap="round"/>
<path d="M113.521 61.595L146.502 90.7013M98.5952 78.5082L131.576 107.615" stroke="#E82525" stroke-width="4" stroke-linecap="round"/>
<circle cx="146.923" cy="126.923" r="22" transform="rotate(11.4292 146.923 126.923)" fill="#F1F2F4" stroke="#E82525" stroke-width="4"/>
<path d="M139.079 105.952C133.085 118.19 132.439 138.795 152.763 148.508" stroke="#E82525" stroke-width="4"/>
</g>
<defs>
<clipPath id="clip0_2229_36536">
<rect width="220" height="210" rx="8" fill="white"/>
</clipPath>
</defs>
</svg>
