<svg width="220" height="210" viewBox="0 0 220 210" fill="none" xmlns="http://www.w3.org/2000/svg">
<g clip-path="url(#clip0_1625_6430)">
<rect width="220" height="210" rx="8" fill="#F1F2F4"/>
<ellipse cx="121.726" cy="85.0615" rx="32" ry="40.5" transform="rotate(41.4292 121.726 85.0615)" stroke="#383838" stroke-width="4"/>
<path d="M66.3195 162.201L85.0472 140.981C90.7789 134.486 100.076 132.814 108.712 133.497C124.412 134.741 142.075 128.501 154.386 114.551C173.754 92.6044 174.686 61.778 156.466 45.6985C138.246 29.619 107.774 34.3753 88.4058 56.322C76.0949 70.2716 72.0991 88.5732 75.2848 103.997C77.0368 112.481 76.5332 121.914 70.8015 128.409L52.0738 149.629" stroke="#383838" stroke-width="4"/>
<path d="M64.6357 135.377L78.8989 147.965L55.4878 174.492C54.026 176.149 51.4983 176.307 49.8419 174.845L41.577 167.551C39.9206 166.089 39.7629 163.561 41.2246 161.905L64.6357 135.377Z" stroke="#383838" stroke-width="4"/>
<path d="M134.087 58.1809L97.0199 100.182M147.054 69.6244L109.987 111.626" stroke="#383838" stroke-width="4" stroke-linecap="round"/>
<path d="M113.522 61.595L146.503 90.7013M98.5961 78.5082L131.577 107.615" stroke="#383838" stroke-width="4" stroke-linecap="round"/>
<circle cx="146.923" cy="126.923" r="22" transform="rotate(11.4292 146.923 126.923)" fill="#F1F2F4" stroke="#383838" stroke-width="4"/>
<path d="M139.079 105.952C133.085 118.19 132.439 138.795 152.763 148.508" stroke="#383838" stroke-width="4"/>
</g>
<defs>
<clipPath id="clip0_1625_6430">
<rect width="220" height="210" rx="8" fill="white"/>
</clipPath>
</defs>
</svg>
