<svg width="18" height="18" viewBox="0 0 18 18" fill="none" xmlns="http://www.w3.org/2000/svg">
<path d="M9 4V6M9 4C9 3.60444 9.1173 3.21776 9.33706 2.88886C9.55682 2.55996 9.86918 2.30362 10.2346 2.15224C10.6001 2.00087 11.0022 1.96126 11.3902 2.03843C11.7781 2.1156 12.1345 2.30608 12.4142 2.58579C12.6939 2.86549 12.8844 3.22186 12.9616 3.60982C13.0387 3.99778 12.9991 4.39992 12.8478 4.76537C12.6964 5.13082 12.44 5.44318 12.1111 5.66294C11.7822 5.8827 11.3956 6 11 6H9M9 4C9 3.60444 8.8827 3.21776 8.66294 2.88886C8.44318 2.55996 8.13082 2.30362 7.76537 2.15224C7.39991 2.00087 6.99778 1.96126 6.60982 2.03843C6.22186 2.1156 5.86549 2.30608 5.58579 2.58579C5.30608 2.86549 5.1156 3.22186 5.03843 3.60982C4.96126 3.99778 5.00087 4.39992 5.15224 4.76537C5.30362 5.13082 5.55996 5.44318 5.88886 5.66294C6.21776 5.8827 6.60444 6 7 6H9" stroke="black" stroke-width="1.125" stroke-miterlimit="10" stroke-linecap="round"/>
<path d="M14.8333 6H3.16667C2.52233 6 2 6.51167 2 7.14286V8.85714C2 9.48833 2.52233 10 3.16667 10H14.8333C15.4777 10 16 9.48833 16 8.85714V7.14286C16 6.51167 15.4777 6 14.8333 6Z" stroke="black" stroke-width="1.125" stroke-linecap="round" stroke-linejoin="round"/>
<path d="M15 10V15.25C15 15.7141 14.8104 16.1592 14.4728 16.4874C14.1352 16.8156 13.6774 17 13.2 17H4.8C4.32261 17 3.86477 16.8156 3.52721 16.4874C3.18964 16.1592 3 15.7141 3 15.25V10" stroke="black" stroke-width="1.125" stroke-linecap="round" stroke-linejoin="round"/>
</svg>
