<svg width="220" height="210" viewBox="0 0 220 210" fill="none" xmlns="http://www.w3.org/2000/svg">
<rect width="220" height="210" rx="8" fill="#F1F2F4"/>
<ellipse cx="78.9992" cy="76.4286" rx="24.3" ry="24.4286" fill="#F1F2F4" stroke="#E82525" stroke-width="4"/>
<path d="M43 144.095V160.203C43 162.232 43 163.247 43.3949 164.022C43.7423 164.703 44.2965 165.258 44.9783 165.605C45.7533 166 46.7679 166 48.7971 166H109.203C111.232 166 112.247 166 113.022 165.605C113.703 165.258 114.258 164.703 114.605 164.022C115 163.247 115 162.232 115 160.203V144.095C115 137.577 115 134.318 114.478 131.605C112.238 119.962 103.133 110.857 91.4906 108.617C88.7774 108.095 85.5183 108.095 79 108.095C72.4817 108.095 69.2226 108.095 66.5094 108.617C54.8667 110.857 45.7619 119.962 43.522 131.605C43 134.318 43 137.577 43 144.095Z" fill="#F1F2F4" stroke="#E82525" stroke-width="4"/>
<path d="M59.4556 61.9524H98.5166M103.045 71.9048H55.3574" stroke="#E82525" stroke-width="4"/>
<path d="M67.3 108.548C67.3 123.476 90.25 123.476 90.25 108.548M43 140.667H57.6V166H100.4V140.667H114.55" stroke="#E82525" stroke-width="4"/>
<ellipse cx="136.21" cy="76.9885" rx="24.4421" ry="24.2759" fill="#F1F2F4" stroke="#E82525" stroke-width="4"/>
<path d="M100 144.668V160.203C100 162.232 100 163.247 100.395 164.022C100.742 164.704 101.297 165.258 101.978 165.605C102.753 166 103.768 166 105.797 166H166.624C168.653 166 169.668 166 170.443 165.605C171.125 165.258 171.679 164.704 172.026 164.022C172.421 163.247 172.421 162.232 172.421 160.203V144.668C172.421 137.954 172.421 134.596 171.867 131.804C169.585 120.293 160.586 111.294 149.074 109.011C146.282 108.457 142.925 108.457 136.211 108.457C129.496 108.457 126.139 108.457 123.347 109.011C111.836 111.294 102.837 120.293 100.554 131.804C100 134.596 100 137.954 100 144.668Z" fill="#F1F2F4" stroke="#E82525" stroke-width="4"/>
<path d="M164.726 46.1712C153.41 39.9602 141.34 46.4189 138.926 52.7126C148.431 54.0614 156.578 60.3552 160.199 71.1444C164.546 84.0944 179.663 85.9797 185.999 83.2824C172.873 74.2913 178.486 53.7237 164.726 46.1712Z" fill="#F1F2F4" stroke="#E82525" stroke-width="4"/>
<path d="M116.552 62.6028H155.841M160.396 72.4929H112.43" stroke="#E82525" stroke-width="4"/>
<path d="M124.442 108.907C124.442 123.742 147.526 123.742 147.526 108.907M157.748 112.554V166H114.674V112.556" stroke="#E82525" stroke-width="4"/>
</svg>
