<svg width="220" height="210" viewBox="0 0 220 210" fill="none" xmlns="http://www.w3.org/2000/svg">
<rect width="220" height="210" rx="8" fill="#F1F2F4"/>
<path fill-rule="evenodd" clip-rule="evenodd" d="M168.937 104.415C169.106 104.236 169.268 104.047 169.422 103.848L188.409 79.2786C190.858 76.1099 190.274 71.5562 187.105 69.1076C183.937 66.6589 179.383 67.2426 176.934 70.4113L166.872 83.4324C167 82.7416 167.067 82.0294 167.067 81.3016C167.067 74.8667 161.85 69.6502 155.415 69.6502C148.98 69.6502 143.764 74.8667 143.764 81.3016C143.764 87.4058 148.458 92.4137 154.433 92.9122C154.009 92.974 153.583 93.0581 153.158 93.1652C152.291 93.3837 151.468 93.6875 150.695 94.0654C150.279 93.6239 149.8 93.2277 149.262 92.8906L128.216 79.7107C124.818 77.5825 120.338 78.6122 118.21 82.0105C116.081 85.4088 117.111 89.889 120.509 92.0172L141.555 105.197C142.234 105.622 142.956 105.922 143.694 106.101C143.742 106.865 143.86 107.635 144.054 108.404L146.688 118.857L139.002 118.014C133.99 117.464 129.48 121.082 128.93 126.094C128.739 127.832 129.049 129.509 129.745 130.981L133.035 151.372C133.717 155.597 137.694 158.469 141.919 157.787C146.144 157.105 149.016 153.128 148.334 148.903L146.446 137.202L157.975 138.467C159.318 138.614 160.623 138.463 161.827 138.066C162.139 138.053 162.451 138.028 162.765 137.991L170.088 165.628C171.076 169.358 174.901 171.581 178.631 170.592C182.361 169.604 184.584 165.779 183.595 162.049L173.865 125.324C173.849 124.376 173.725 123.414 173.483 122.455L168.937 104.415ZM157.191 92.8185C157.923 92.8749 158.642 92.9954 159.343 93.1756L160.366 91.852C159.376 92.3174 158.31 92.6475 157.191 92.8185Z" fill="#F1F2F4"/>
<path d="M169.422 103.848L171.005 105.071V105.071L169.422 103.848ZM168.937 104.415L167.487 103.037C167.015 103.535 166.83 104.239 166.997 104.904L168.937 104.415ZM188.409 79.2786L186.827 78.0556V78.0556L188.409 79.2786ZM187.105 69.1076L185.883 70.6901V70.6901L187.105 69.1076ZM176.934 70.4113L178.517 71.6342V71.6342L176.934 70.4113ZM166.872 83.4324L164.905 83.0689C164.738 83.9768 165.213 84.8815 166.056 85.2583C166.899 85.635 167.89 85.3859 168.455 84.6553L166.872 83.4324ZM154.433 92.9122L154.721 94.8914C155.727 94.7451 156.464 93.8672 156.432 92.851C156.401 91.8348 155.613 91.0037 154.6 90.9191L154.433 92.9122ZM153.158 93.1652L153.646 95.1046L153.158 93.1652ZM150.695 94.0654L149.24 95.4375C149.841 96.075 150.788 96.247 151.575 95.8619L150.695 94.0654ZM149.262 92.8906L148.2 94.5856L149.262 92.8906ZM128.216 79.7107L127.155 81.4058L128.216 79.7107ZM118.21 82.0105L116.515 80.949H116.515L118.21 82.0105ZM120.509 92.0172L121.571 90.3222L120.509 92.0172ZM141.555 105.197L140.493 106.892H140.493L141.555 105.197ZM143.694 106.101L145.69 105.977C145.636 105.102 145.018 104.364 144.167 104.157L143.694 106.101ZM144.054 108.404L145.993 107.915V107.915L144.054 108.404ZM146.688 118.857L146.47 120.845C147.121 120.916 147.766 120.664 148.196 120.17C148.626 119.677 148.788 119.003 148.627 118.368L146.688 118.857ZM139.002 118.014L139.221 116.026L139.002 118.014ZM128.93 126.094L126.942 125.876L128.93 126.094ZM129.745 130.981L131.719 130.662C131.689 130.477 131.633 130.297 131.553 130.127L129.745 130.981ZM133.035 151.372L131.061 151.691L133.035 151.372ZM148.334 148.903L146.36 149.222L148.334 148.903ZM146.446 137.202L146.664 135.214C146.043 135.146 145.426 135.372 144.996 135.824C144.566 136.277 144.372 136.904 144.471 137.521L146.446 137.202ZM157.975 138.467L157.757 140.455H157.757L157.975 138.467ZM161.827 138.066L161.743 136.067C161.558 136.075 161.376 136.108 161.201 136.166L161.827 138.066ZM162.765 137.991L164.698 137.479C164.443 136.516 163.52 135.888 162.531 136.004L162.765 137.991ZM170.088 165.628L168.154 166.14L170.088 165.628ZM178.631 170.592L178.119 168.659H178.119L178.631 170.592ZM183.595 162.049L181.662 162.561L183.595 162.049ZM173.865 125.324L171.865 125.358C171.868 125.519 171.89 125.68 171.932 125.837L173.865 125.324ZM173.483 122.455L175.423 121.966L173.483 122.455ZM157.191 92.8185L156.889 90.8415C155.884 90.9951 155.154 91.8778 155.192 92.8933C155.23 93.9089 156.024 94.7345 157.037 94.8126L157.191 92.8185ZM159.343 93.1756L158.844 95.1125C159.618 95.3117 160.437 95.031 160.925 94.3986L159.343 93.1756ZM160.366 91.852L161.948 93.075C162.513 92.3439 162.504 91.3211 161.926 90.6005C161.348 89.8798 160.351 89.649 159.515 90.042L160.366 91.852ZM167.84 102.625C167.727 102.771 167.61 102.908 167.487 103.037L170.387 105.792C170.603 105.564 170.809 105.324 171.005 105.071L167.84 102.625ZM186.827 78.0556L167.84 102.625L171.005 105.071L189.992 80.5015L186.827 78.0556ZM185.883 70.6901C188.177 72.4633 188.6 75.761 186.827 78.0556L189.992 80.5015C193.116 76.4588 192.371 70.6491 188.328 67.525L185.883 70.6901ZM178.517 71.6342C180.29 69.3396 183.588 68.9169 185.883 70.6901L188.328 67.525C184.286 64.401 178.476 65.1457 175.352 69.1883L178.517 71.6342ZM168.455 84.6553L178.517 71.6342L175.352 69.1883L165.29 82.2094L168.455 84.6553ZM165.067 81.3016C165.067 81.9069 165.011 82.4974 164.905 83.0689L168.839 83.7958C168.989 82.9857 169.067 82.1519 169.067 81.3016H165.067ZM155.415 71.6502C160.745 71.6502 165.067 75.9713 165.067 81.3016H169.067C169.067 73.7622 162.955 67.6502 155.415 67.6502V71.6502ZM145.764 81.3016C145.764 75.9713 150.085 71.6502 155.415 71.6502V67.6502C147.876 67.6502 141.764 73.7622 141.764 81.3016H145.764ZM154.6 90.9191C149.652 90.5063 145.764 86.357 145.764 81.3016H141.764C141.764 88.4546 147.264 94.321 154.267 94.9053L154.6 90.9191ZM153.646 95.1046C154.005 95.0142 154.364 94.9433 154.721 94.8914L154.146 90.933C153.653 91.0046 153.161 91.102 152.669 91.2259L153.646 95.1046ZM151.575 95.8619C152.223 95.5447 152.915 95.2889 153.646 95.1046L152.669 91.2259C151.666 91.4785 150.713 91.8304 149.816 92.269L151.575 95.8619ZM148.2 94.5856C148.593 94.8316 148.94 95.1189 149.24 95.4375L152.151 92.6934C151.618 92.1289 151.007 91.6239 150.323 91.1956L148.2 94.5856ZM127.155 81.4058L148.2 94.5856L150.323 91.1956L129.278 78.0157L127.155 81.4058ZM119.905 83.072C121.447 80.6098 124.693 79.8638 127.155 81.4058L129.278 78.0157C124.943 75.3012 119.229 76.6145 116.515 80.949L119.905 83.072ZM121.571 90.3222C119.109 88.7802 118.363 85.5342 119.905 83.072L116.515 80.949C113.8 85.2835 115.113 90.9978 119.448 93.7123L121.571 90.3222ZM142.616 103.502L121.571 90.3222L119.448 93.7123L140.493 106.892L142.616 103.502ZM144.167 104.157C143.634 104.028 143.111 103.812 142.616 103.502L140.493 106.892C141.357 107.433 142.278 107.815 143.222 108.044L144.167 104.157ZM145.993 107.915C145.83 107.266 145.73 106.618 145.69 105.977L141.698 106.225C141.753 107.111 141.89 108.003 142.114 108.892L145.993 107.915ZM148.627 118.368L145.993 107.915L142.114 108.892L144.749 119.346L148.627 118.368ZM138.784 120.002L146.47 120.845L146.906 116.869L139.221 116.026L138.784 120.002ZM130.918 126.313C131.348 122.398 134.869 119.572 138.784 120.002L139.221 116.026C133.11 115.355 127.612 119.765 126.942 125.876L130.918 126.313ZM131.553 130.127C131.011 128.979 130.769 127.672 130.918 126.313L126.942 125.876C126.71 127.991 127.088 130.038 127.936 131.835L131.553 130.127ZM135.01 151.053L131.719 130.662L127.77 131.3L131.061 151.691L135.01 151.053ZM141.601 155.812C138.466 156.318 135.515 154.187 135.01 151.053L131.061 151.691C131.919 157.006 136.923 160.619 142.238 159.761L141.601 155.812ZM146.36 149.222C146.866 152.356 144.735 155.307 141.601 155.812L142.238 159.761C147.553 158.904 151.166 153.899 150.309 148.584L146.36 149.222ZM144.471 137.521L146.36 149.222L150.309 148.584L148.42 136.883L144.471 137.521ZM158.194 136.479L146.664 135.214L146.228 139.19L157.757 140.455L158.194 136.479ZM161.201 136.166C160.263 136.475 159.245 136.594 158.194 136.479L157.757 140.455C159.39 140.634 160.984 140.45 162.454 139.965L161.201 136.166ZM162.531 136.004C162.267 136.036 162.005 136.056 161.743 136.067L161.911 140.064C162.273 140.049 162.635 140.02 162.999 139.977L162.531 136.004ZM172.021 165.116L164.698 137.479L160.832 138.503L168.154 166.14L172.021 165.116ZM178.119 168.659C175.456 169.365 172.726 167.778 172.021 165.116L168.154 166.14C169.426 170.938 174.345 173.797 179.143 172.526L178.119 168.659ZM181.662 162.561C182.368 165.224 180.781 167.954 178.119 168.659L179.143 172.526C183.941 171.255 186.8 166.335 185.529 161.537L181.662 162.561ZM171.932 125.837L181.662 162.561L185.529 161.537L175.798 124.812L171.932 125.837ZM171.544 122.943C171.748 123.753 171.852 124.562 171.865 125.358L175.865 125.291C175.846 124.19 175.702 123.076 175.423 121.966L171.544 122.943ZM166.997 104.904L171.544 122.943L175.423 121.966L170.876 103.926L166.997 104.904ZM157.037 94.8126C157.651 94.8599 158.256 94.9611 158.844 95.1125L159.841 91.2387C159.029 91.0297 158.194 90.8898 157.345 90.8244L157.037 94.8126ZM160.925 94.3986L161.948 93.075L158.783 90.6291L157.76 91.9527L160.925 94.3986ZM159.515 90.042C158.696 90.4269 157.814 90.6999 156.889 90.8415L157.493 94.7955C158.805 94.595 160.055 94.2078 161.216 93.662L159.515 90.042Z" fill="#E82525"/>
<path fill-rule="evenodd" clip-rule="evenodd" d="M75.3607 104.415C75.5302 104.236 75.6923 104.047 75.8461 103.848L94.833 79.2786C97.2816 76.1099 96.698 71.5562 93.5293 69.1076C90.3607 66.6589 85.807 67.2426 83.3583 70.4113L73.296 83.4324C73.4236 82.7416 73.4904 82.0294 73.4904 81.3016C73.4904 74.8667 68.2739 69.6502 61.839 69.6502C55.4041 69.6502 50.1876 74.8667 50.1876 81.3016C50.1876 87.4058 54.8818 92.4137 60.8572 92.9122C60.4324 92.974 60.0067 93.0581 59.5814 93.1652C58.7145 93.3837 57.8915 93.6875 57.1193 94.0654C56.703 93.6239 56.2241 93.2277 55.6857 92.8906L34.6401 79.7107C31.2418 77.5825 26.7616 78.6122 24.6334 82.0105C22.5052 85.4088 23.5348 89.889 26.9332 92.0172L47.9788 105.197C48.6578 105.622 49.3801 105.922 50.1181 106.101C50.1655 106.865 50.2838 107.635 50.4776 108.404L53.405 120.02L44.5256 119.046C40.0102 118.55 35.9481 121.809 35.4527 126.325C35.3251 127.488 35.4466 128.621 35.7747 129.671L39.4591 152.502C40.1409 156.726 44.1183 159.598 48.343 158.917C52.5677 158.235 55.4398 154.257 54.758 150.033L52.5704 136.477L65.4976 137.895C65.5825 137.904 65.6672 137.912 65.7518 137.919C66.8695 138.099 68.0243 138.128 69.1887 137.991L76.5114 165.628C77.4997 169.358 81.3248 171.581 85.0549 170.592C88.785 169.604 91.0076 165.779 90.0193 162.049L80.2888 125.324C80.2731 124.376 80.1488 123.414 79.907 122.455L75.3607 104.415ZM63.6149 92.8185C64.3465 92.8749 65.0662 92.9954 65.7667 93.1756L66.7895 91.852C65.7995 92.3174 64.7334 92.6475 63.6149 92.8185Z" fill="#F1F2F4"/>
<path d="M75.8461 103.848L77.4286 105.071V105.071L75.8461 103.848ZM75.3607 104.415L73.9105 103.037C73.4384 103.535 73.2538 104.239 73.4213 104.904L75.3607 104.415ZM94.833 79.2786L93.2505 78.0556V78.0556L94.833 79.2786ZM93.5293 69.1076L92.3064 70.6901V70.6901L93.5293 69.1076ZM83.3583 70.4113L84.9409 71.6342V71.6342L83.3583 70.4113ZM73.296 83.4324L71.3293 83.0689C71.1615 83.9768 71.637 84.8815 72.4799 85.2583C73.3227 85.635 74.314 85.3859 74.8785 84.6553L73.296 83.4324ZM60.8572 92.9122L61.145 94.8914C62.1511 94.7451 62.8873 93.8672 62.8562 92.851C62.8251 91.8348 62.0366 91.0037 61.0235 90.9191L60.8572 92.9122ZM59.5814 93.1652L60.0702 95.1046L59.5814 93.1652ZM57.1193 94.0654L55.6642 95.4375C56.2653 96.075 57.2113 96.247 57.9984 95.8619L57.1193 94.0654ZM55.6857 92.8906L54.6242 94.5856L55.6857 92.8906ZM34.6401 79.7107L33.5786 81.4058L34.6401 79.7107ZM24.6334 82.0105L22.9384 80.949H22.9384L24.6334 82.0105ZM26.9332 92.0172L27.9947 90.3222L26.9332 92.0172ZM47.9788 105.197L46.9173 106.892H46.9173L47.9788 105.197ZM50.1181 106.101L52.1142 105.977C52.0599 105.102 51.4422 104.364 50.5904 104.157L50.1181 106.101ZM50.4776 108.404L52.417 107.915L50.4776 108.404ZM53.405 120.02L53.1869 122.008C53.838 122.079 54.4829 121.827 54.9131 121.333C55.3434 120.839 55.5045 120.166 55.3444 119.531L53.405 120.02ZM44.5256 119.046L44.7438 117.058L44.5256 119.046ZM35.4527 126.325L37.4408 126.543L35.4527 126.325ZM35.7747 129.671L37.7492 129.352C37.734 129.258 37.7121 129.166 37.6837 129.075L35.7747 129.671ZM39.4591 152.502L37.4846 152.82L39.4591 152.502ZM54.758 150.033L52.7835 150.351L54.758 150.033ZM52.5704 136.477L52.7885 134.489C52.1678 134.421 51.5509 134.646 51.1207 135.099C50.6906 135.552 50.4964 136.179 50.5959 136.796L52.5704 136.477ZM65.4976 137.895L65.7157 135.907H65.7157L65.4976 137.895ZM65.7518 137.919L66.0688 135.944C66.0158 135.936 65.9626 135.93 65.9091 135.925L65.7518 137.919ZM69.1887 137.991L71.122 137.479C70.8671 136.516 69.9433 135.888 68.9548 136.004L69.1887 137.991ZM76.5114 165.628L74.5781 166.14L76.5114 165.628ZM85.0549 170.592L84.5426 168.659H84.5426L85.0549 170.592ZM90.0193 162.049L88.086 162.561L90.0193 162.049ZM80.2888 125.324L78.2891 125.358C78.2918 125.519 78.3141 125.68 78.3555 125.837L80.2888 125.324ZM79.907 122.455L81.8464 121.966L79.907 122.455ZM63.6149 92.8185L63.3125 90.8415C62.3079 90.9951 61.5783 91.8778 61.6163 92.8933C61.6543 93.9089 62.448 94.7345 63.4612 94.8126L63.6149 92.8185ZM65.7667 93.1756L65.2682 95.1125C66.0422 95.3117 66.8605 95.031 67.3492 94.3986L65.7667 93.1756ZM66.7895 91.852L68.3721 93.075C68.937 92.3439 68.9277 91.3211 68.3495 90.6005C67.7714 89.8798 66.7749 89.649 65.9387 90.042L66.7895 91.852ZM74.2636 102.625C74.1513 102.771 74.0334 102.908 73.9105 103.037L76.8109 105.792C77.027 105.564 77.2333 105.324 77.4286 105.071L74.2636 102.625ZM93.2505 78.0556L74.2636 102.625L77.4286 105.071L96.4155 80.5015L93.2505 78.0556ZM92.3064 70.6901C94.601 72.4633 95.0237 75.761 93.2505 78.0556L96.4155 80.5015C99.5396 76.4588 98.7949 70.6491 94.7523 67.525L92.3064 70.6901ZM84.9409 71.6342C86.7141 69.3396 90.0117 68.9169 92.3064 70.6901L94.7523 67.525C90.7096 64.401 84.8998 65.1457 81.7758 69.1883L84.9409 71.6342ZM74.8785 84.6553L84.9409 71.6342L81.7758 69.1883L71.7134 82.2094L74.8785 84.6553ZM71.4904 81.3016C71.4904 81.9069 71.4349 82.4974 71.3293 83.0689L75.2627 83.7958C75.4124 82.9857 75.4904 82.1519 75.4904 81.3016H71.4904ZM61.839 71.6502C67.1693 71.6502 71.4904 75.9713 71.4904 81.3016H75.4904C75.4904 73.7622 69.3784 67.6502 61.839 67.6502V71.6502ZM52.1876 81.3016C52.1876 75.9713 56.5087 71.6502 61.839 71.6502V67.6502C54.2995 67.6502 48.1876 73.7622 48.1876 81.3016H52.1876ZM61.0235 90.9191C56.0758 90.5063 52.1876 86.357 52.1876 81.3016H48.1876C48.1876 88.4546 53.6877 94.321 60.6909 94.9053L61.0235 90.9191ZM60.0702 95.1046C60.4291 95.0142 60.7877 94.9433 61.145 94.8914L60.5693 90.933C60.0771 91.0046 59.5843 91.102 59.0927 91.2259L60.0702 95.1046ZM57.9984 95.8619C58.6466 95.5447 59.3388 95.2889 60.0702 95.1046L59.0927 91.2259C58.0902 91.4785 57.1365 91.8304 56.2402 92.269L57.9984 95.8619ZM54.6242 94.5856C55.0169 94.8316 55.3637 95.1189 55.6642 95.4375L58.5744 92.6934C58.0422 92.1289 57.4313 91.6239 56.7473 91.1956L54.6242 94.5856ZM33.5786 81.4058L54.6242 94.5856L56.7473 91.1956L35.7016 78.0157L33.5786 81.4058ZM26.3284 83.072C27.8704 80.6098 31.1164 79.8638 33.5786 81.4058L35.7016 78.0157C31.3672 75.3012 25.6528 76.6145 22.9384 80.949L26.3284 83.072ZM27.9947 90.3222C25.5325 88.7802 24.7865 85.5342 26.3284 83.072L22.9384 80.949C20.2239 85.2835 21.5371 90.9978 25.8716 93.7123L27.9947 90.3222ZM49.0403 103.502L27.9947 90.3222L25.8716 93.7123L46.9173 106.892L49.0403 103.502ZM50.5904 104.157C50.0582 104.028 49.5353 103.812 49.0403 103.502L46.9173 106.892C47.7804 107.433 48.7019 107.815 49.6457 108.044L50.5904 104.157ZM52.417 107.915C52.2535 107.266 52.1541 106.618 52.1142 105.977L48.1219 106.225C48.177 107.111 48.3142 108.003 48.5382 108.892L52.417 107.915ZM55.3444 119.531L52.417 107.915L48.5382 108.892L51.4657 120.509L55.3444 119.531ZM44.3075 121.034L53.1869 122.008L53.6231 118.032L44.7438 117.058L44.3075 121.034ZM37.4408 126.543C37.8157 123.125 40.8901 120.659 44.3075 121.034L44.7438 117.058C39.1303 116.442 34.0805 120.493 33.4646 126.106L37.4408 126.543ZM37.6837 129.075C37.4363 128.283 37.3438 127.427 37.4408 126.543L33.4646 126.106C33.3064 127.549 33.457 128.959 33.8657 130.268L37.6837 129.075ZM41.4335 152.183L37.7492 129.352L33.8002 129.99L37.4846 152.82L41.4335 152.183ZM48.0244 156.942C44.8901 157.448 41.9393 155.317 41.4335 152.183L37.4846 152.82C38.3424 158.135 43.3465 161.749 48.6616 160.891L48.0244 156.942ZM52.7835 150.351C53.2893 153.486 51.1586 156.436 48.0244 156.942L48.6616 160.891C53.9768 160.033 57.5902 155.029 56.7324 149.714L52.7835 150.351ZM50.5959 136.796L52.7835 150.351L56.7324 149.714L54.5448 136.158L50.5959 136.796ZM65.7157 135.907L52.7885 134.489L52.3523 138.465L65.2795 139.883L65.7157 135.907ZM65.9091 135.925C65.8448 135.92 65.7803 135.914 65.7157 135.907L65.2795 139.883C65.3846 139.895 65.4896 139.905 65.5944 139.913L65.9091 135.925ZM68.9548 136.004C67.9764 136.12 67.007 136.095 66.0688 135.944L65.4347 139.894C66.7321 140.102 68.0723 140.136 69.4227 139.977L68.9548 136.004ZM78.4447 165.116L71.122 137.479L67.2554 138.503L74.5781 166.14L78.4447 165.116ZM84.5426 168.659C81.8803 169.365 79.1501 167.778 78.4447 165.116L74.5781 166.14C75.8494 170.938 80.7693 173.797 85.5671 172.526L84.5426 168.659ZM88.086 162.561C88.7914 165.224 87.205 167.954 84.5426 168.659L85.5671 172.526C90.3649 171.255 93.2238 166.335 91.9526 161.537L88.086 162.561ZM78.3555 125.837L88.086 162.561L91.9526 161.537L82.2221 124.812L78.3555 125.837ZM77.9676 122.943C78.1716 123.753 78.2759 124.562 78.2891 125.358L82.2885 125.291C82.2702 124.19 82.126 123.076 81.8464 121.966L77.9676 122.943ZM73.4213 104.904L77.9676 122.943L81.8464 121.966L77.3 103.926L73.4213 104.904ZM63.4612 94.8126C64.0753 94.8599 64.6796 94.9611 65.2682 95.1125L66.2651 91.2387C65.4527 91.0297 64.6177 90.8898 63.7686 90.8244L63.4612 94.8126ZM67.3492 94.3986L68.3721 93.075L65.207 90.6291L64.1841 91.9527L67.3492 94.3986ZM65.9387 90.042C65.1198 90.4269 64.2381 90.6999 63.3125 90.8415L63.9172 94.7955C65.2286 94.595 66.4793 94.2078 67.6403 93.662L65.9387 90.042Z" fill="#E82525"/>
<path fill-rule="evenodd" clip-rule="evenodd" d="M126.041 86.1318C126.257 85.9041 126.464 85.6632 126.66 85.4093L150.874 54.0754C153.997 50.0345 153.252 44.2272 149.211 41.1044C145.17 37.9817 139.363 38.726 136.24 42.767L123.408 59.3725C123.571 58.4919 123.656 57.584 123.656 56.6562C123.656 48.4498 117.003 41.7972 108.797 41.7972C100.59 41.7972 93.9378 48.4498 93.9378 56.6562C93.9378 64.4411 99.9245 70.8277 107.545 71.4632C107.003 71.542 106.46 71.6493 105.918 71.786C104.812 72.0646 103.763 72.452 102.778 72.9338C102.247 72.3706 101.636 71.8652 100.95 71.4352L74.1101 54.6269C69.7762 51.9128 64.0627 53.2259 61.3486 57.5598C58.6345 61.8937 59.9476 67.6073 64.2815 70.3214L91.1209 87.1296C91.9869 87.6719 92.9079 88.0535 93.8491 88.2822C93.9096 89.2564 94.0605 90.2388 94.3076 91.2196L98.3916 107.425L86.5269 106.123C81.0304 105.52 76.0703 109.36 75.2292 114.769C75.1559 115.202 75.115 115.644 75.1088 116.092C75.0819 117.085 75.1985 118.054 75.441 118.976L80.4442 149.979C81.2096 154.722 85.6749 157.946 90.4178 157.181C95.1606 156.415 98.385 151.95 97.6196 147.207L94.4739 127.714L113.695 129.823C115.291 129.998 116.843 129.799 118.261 129.294L127.509 164.197C128.769 168.954 133.647 171.788 138.404 170.528C143.161 169.267 145.995 164.389 144.735 159.632L132.326 112.797C132.306 111.588 132.147 110.362 131.839 109.139L126.041 86.1318ZM111.061 71.3438C111.994 71.4156 112.912 71.5693 113.805 71.7991L115.109 70.1116C113.847 70.7049 112.487 71.1257 111.061 71.3438Z" fill="#F1F2F4"/>
<path d="M126.66 85.4093L128.243 86.6323V86.6323L126.66 85.4093ZM126.041 86.1318L124.591 84.7545C124.118 85.2515 123.934 85.9558 124.101 86.6206L126.041 86.1318ZM150.874 54.0754L152.457 55.2984L150.874 54.0754ZM149.211 41.1044L150.434 39.5219V39.5219L149.211 41.1044ZM136.24 42.767L137.823 43.9899L136.24 42.767ZM123.408 59.3725L121.441 59.0092C121.274 59.9171 121.749 60.8218 122.592 61.1985C123.435 61.5752 124.426 61.326 124.991 60.5955L123.408 59.3725ZM107.545 71.4632L107.833 73.4424C108.839 73.2961 109.575 72.4183 109.544 71.4021C109.513 70.3858 108.725 69.5547 107.711 69.4702L107.545 71.4632ZM105.918 71.786L106.406 73.7254H106.406L105.918 71.786ZM102.778 72.9338L101.323 74.3058C101.924 74.9434 102.87 75.1154 103.657 74.7303L102.778 72.9338ZM100.95 71.4352L102.011 69.7401L100.95 71.4352ZM74.1101 54.6269L73.0486 56.322L74.1101 54.6269ZM61.3486 57.5598L59.6535 56.4983H59.6535L61.3486 57.5598ZM64.2815 70.3214L65.343 68.6263L64.2815 70.3214ZM91.1209 87.1296L92.1824 85.4346H92.1824L91.1209 87.1296ZM93.8491 88.2822L95.8453 88.1583C95.7909 87.2834 95.1732 86.5458 94.3215 86.3388L93.8491 88.2822ZM94.3076 91.2196L96.247 90.7308V90.7308L94.3076 91.2196ZM98.3916 107.425L98.1735 109.413C98.8246 109.484 99.4694 109.232 99.8997 108.738C100.33 108.244 100.491 107.571 100.331 106.936L98.3916 107.425ZM86.5269 106.123L86.745 104.135H86.745L86.5269 106.123ZM75.2292 114.769L77.2011 115.103C77.2026 115.095 77.2041 115.086 77.2055 115.077L75.2292 114.769ZM75.1088 116.092L77.1081 116.146C77.1083 116.138 77.1085 116.129 77.1086 116.12L75.1088 116.092ZM75.441 118.976L77.4154 118.658C77.4051 118.594 77.3917 118.53 77.3753 118.468L75.441 118.976ZM80.4442 149.979L82.4186 149.66L80.4442 149.979ZM90.4178 157.181L90.7364 159.155H90.7364L90.4178 157.181ZM97.6196 147.207L99.594 146.888L97.6196 147.207ZM94.4739 127.714L94.692 125.726C94.0713 125.658 93.4544 125.884 93.0242 126.337C92.5941 126.789 92.3999 127.417 92.4994 128.033L94.4739 127.714ZM113.695 129.823L113.476 131.811L113.695 129.823ZM118.261 129.294L120.194 128.782C120.051 128.242 119.688 127.786 119.194 127.525C118.699 127.264 118.118 127.223 117.591 127.41L118.261 129.294ZM127.509 164.197L125.575 164.709L127.509 164.197ZM138.404 170.528L137.892 168.594H137.892L138.404 170.528ZM144.735 159.632L146.668 159.12L144.735 159.632ZM132.326 112.797L130.326 112.831C130.329 112.992 130.351 113.153 130.392 113.31L132.326 112.797ZM131.839 109.139L129.9 109.628L131.839 109.139ZM111.061 71.3438L110.759 69.3668C109.754 69.5204 109.024 70.403 109.062 71.4186C109.1 72.4342 109.894 73.2598 110.907 73.3379L111.061 71.3438ZM113.805 71.7991L113.307 73.736C114.081 73.9352 114.899 73.6544 115.388 73.0221L113.805 71.7991ZM115.109 70.1116L116.692 71.3345C117.257 70.6035 117.247 69.5807 116.669 68.8601C116.091 68.1395 115.095 67.9086 114.259 68.3015L115.109 70.1116ZM125.078 84.1864C124.923 84.3865 124.76 84.5758 124.591 84.7545L127.491 87.5091C127.754 87.2323 128.005 86.9399 128.243 86.6323L125.078 84.1864ZM149.291 52.8525L125.078 84.1864L128.243 86.6323L152.457 55.2984L149.291 52.8525ZM147.988 42.6869C151.155 45.1343 151.739 49.6856 149.291 52.8525L152.457 55.2984C156.255 50.3834 155.349 43.32 150.434 39.5219L147.988 42.6869ZM137.823 43.9899C140.27 40.823 144.821 40.2396 147.988 42.6869L150.434 39.5219C145.519 35.7237 138.456 36.6291 134.658 41.5441L137.823 43.9899ZM124.991 60.5955L137.823 43.9899L134.658 41.5441L121.826 58.1496L124.991 60.5955ZM121.656 56.6562C121.656 57.4615 121.582 58.2478 121.441 59.0092L125.375 59.7359C125.559 58.7359 125.656 57.7064 125.656 56.6562H121.656ZM108.797 43.7972C115.899 43.7972 121.656 49.5544 121.656 56.6562H125.656C125.656 47.3453 118.108 39.7972 108.797 39.7972V43.7972ZM95.9378 56.6562C95.9378 49.5544 101.695 43.7972 108.797 43.7972V39.7972C99.4858 39.7972 91.9378 47.3453 91.9378 56.6562H95.9378ZM107.711 69.4702C101.119 68.9203 95.9378 63.3923 95.9378 56.6562H91.9378C91.9378 65.4899 98.7305 72.7351 107.379 73.4563L107.711 69.4702ZM106.406 73.7254C106.883 73.6054 107.359 73.5114 107.833 73.4424L107.257 69.4841C106.648 69.5727 106.038 69.6932 105.429 69.8466L106.406 73.7254ZM103.657 74.7303C104.518 74.3091 105.437 73.9698 106.406 73.7254L105.429 69.8466C104.188 70.1594 103.008 70.5948 101.899 71.1374L103.657 74.7303ZM99.888 73.1302C100.429 73.469 100.908 73.8655 101.323 74.3058L104.233 71.5619C103.586 70.8756 102.843 70.2614 102.011 69.7401L99.888 73.1302ZM73.0486 56.322L99.888 73.1302L102.011 69.7401L75.1717 52.9319L73.0486 56.322ZM63.0436 58.6214C65.1715 55.2236 69.6509 54.1941 73.0486 56.322L75.1717 52.9319C69.9016 49.6315 62.9539 51.2283 59.6535 56.4983L63.0436 58.6214ZM65.343 68.6263C61.9452 66.4985 60.9158 62.0191 63.0436 58.6214L59.6535 56.4983C56.3532 61.7684 57.9499 68.716 63.2199 72.0164L65.343 68.6263ZM92.1824 85.4346L65.343 68.6263L63.2199 72.0164L90.0594 88.8247L92.1824 85.4346ZM94.3215 86.3388C93.5861 86.1601 92.8643 85.8616 92.1824 85.4346L90.0594 88.8247C91.1094 89.4823 92.2298 89.9469 93.3767 90.2256L94.3215 86.3388ZM96.247 90.7308C96.0301 89.8702 95.8982 89.0099 95.8453 88.1583L91.853 88.4062C91.9211 89.5028 92.0908 90.6074 92.3683 91.7083L96.247 90.7308ZM100.331 106.936L96.247 90.7308L92.3683 91.7083L96.4522 107.913L100.331 106.936ZM86.3088 108.111L98.1735 109.413L98.6097 105.437L86.745 104.135L86.3088 108.111ZM77.2055 115.077C77.883 110.72 81.8803 107.625 86.3088 108.111L86.745 104.135C80.1804 103.415 74.2577 108.001 73.253 114.462L77.2055 115.077ZM77.1086 116.12C77.1134 115.776 77.1448 115.436 77.2011 115.103L73.2573 114.435C73.167 114.969 73.1166 115.513 73.109 116.065L77.1086 116.12ZM77.3753 118.468C77.1803 117.726 77.0864 116.947 77.1081 116.146L73.1095 116.038C73.0774 117.223 73.2166 118.381 73.5067 119.485L77.3753 118.468ZM82.4186 149.66L77.4154 118.658L73.4665 119.295L78.4697 150.298L82.4186 149.66ZM90.0991 155.206C86.4467 155.796 83.0081 153.313 82.4186 149.66L78.4697 150.298C79.4111 156.131 84.9031 160.097 90.7364 159.155L90.0991 155.206ZM95.6451 147.526C96.2346 151.178 93.7515 154.617 90.0991 155.206L90.7364 159.155C96.5697 158.214 100.535 152.722 99.594 146.888L95.6451 147.526ZM92.4994 128.033L95.6451 147.526L99.594 146.888L96.4483 127.396L92.4994 128.033ZM113.913 127.835L94.692 125.726L94.2557 129.702L113.476 131.811L113.913 127.835ZM117.591 127.41C116.451 127.815 115.203 127.977 113.913 127.835L113.476 131.811C115.38 132.02 117.234 131.782 118.931 131.179L117.591 127.41ZM129.442 163.684L120.194 128.782L116.328 129.807L125.575 164.709L129.442 163.684ZM137.892 168.594C134.202 169.572 130.419 167.374 129.442 163.684L125.575 164.709C127.119 170.534 133.091 174.004 138.916 172.461L137.892 168.594ZM142.802 160.145C143.779 163.834 141.581 167.617 137.892 168.594L138.916 172.461C144.741 170.918 148.212 164.945 146.668 159.12L142.802 160.145ZM130.392 113.31L142.802 160.145L146.668 159.12L134.259 112.285L130.392 113.31ZM129.9 109.628C130.17 110.701 130.308 111.774 130.326 112.831L134.326 112.764C134.303 111.402 134.124 110.023 133.778 108.65L129.9 109.628ZM124.101 86.6206L129.9 109.628L133.778 108.65L127.98 85.6431L124.101 86.6206ZM110.907 73.3379C111.723 73.4007 112.525 73.535 113.307 73.736L114.304 69.8622C113.298 69.6036 112.265 69.4306 111.215 69.3497L110.907 73.3379ZM115.388 73.0221L116.692 71.3345L113.527 68.8887L112.223 70.5762L115.388 73.0221ZM114.259 68.3015C113.167 68.8144 111.992 69.1782 110.759 69.3668L111.363 73.3208C112.982 73.0732 114.526 72.5953 115.96 71.9217L114.259 68.3015Z" fill="#E82525"/>
</svg>
