<svg width="83" height="54" viewBox="0 0 83 54" fill="none" xmlns="http://www.w3.org/2000/svg">
<path d="M26.4701 39.9204L26.252 40.1213L26.0301 39.9023C16.4495 30.4633 10.1162 24.2219 10.3651 18.167C10.5373 13.9768 13.8091 10.9633 17.9993 11.1355C20.5449 11.2401 22.9848 12.6468 24.389 14.6576C25.0622 15.6216 26.0493 16.4192 27.2241 16.4675C28.399 16.5157 29.4482 15.8019 30.1983 14.8963C31.7627 13.0075 34.3098 11.8059 36.8554 11.9105C41.0456 12.0827 44.0591 15.3545 43.8869 19.5448C43.638 25.5996 36.814 31.3003 26.4701 39.9204ZM37.0276 7.72026C33.3821 7.57043 29.8135 9.12367 27.4205 11.6906C25.2461 8.93595 21.8171 7.09511 18.1716 6.94528C11.7186 6.68006 6.44092 11.5209 6.17484 17.9948C5.85021 25.8934 12.7075 32.66 23.0952 42.8877L26.0195 45.7781L29.1711 43.1374C40.363 33.7967 47.7525 27.6156 48.0771 19.717C48.3432 13.2431 43.4805 7.98547 37.0276 7.72026Z" fill="#383838"/>
<path d="M56.3568 40.9685L56.1387 41.1694L55.9168 40.9504C46.3362 31.5114 40.0029 25.27 40.2518 19.2151C40.424 15.0249 43.6958 12.0114 47.8861 12.1836C50.4317 12.2882 52.8715 13.6949 54.2757 15.7057C54.9489 16.6697 55.936 17.4673 57.1109 17.5156C58.2857 17.5638 59.3349 16.85 60.085 15.9444C61.6495 14.0556 64.1965 12.854 66.7421 12.9586C70.9323 13.1308 73.9458 16.4026 73.7736 20.5929C73.5247 26.6477 66.7007 32.3484 56.3568 40.9685ZM66.9143 8.76835C63.2688 8.61852 59.7002 10.1718 57.3072 12.7387C55.1329 9.98404 51.7038 8.1432 48.0583 7.99337C41.6053 7.72816 36.3276 12.569 36.0616 19.0429C35.7369 26.9415 42.5942 33.7081 52.9819 43.9358L55.9062 46.8262L59.0578 44.1855C70.2497 34.8448 77.6392 28.6636 77.9638 20.7651C78.2299 14.2912 73.3672 9.03357 66.9143 8.76835Z" fill="#383838"/>
<path d="M56.3568 40.9685L56.1387 41.1694L55.9168 40.9504C46.3362 31.5114 40.0029 25.27 40.2518 19.2151C40.424 15.0249 43.6958 12.0114 47.8861 12.1836C50.4317 12.2882 52.8715 13.6949 54.2757 15.7057C54.9489 16.6697 55.936 17.4673 57.1109 17.5156C58.2857 17.5638 59.3349 16.85 60.085 15.9444C61.6495 14.0556 64.1965 12.854 66.7421 12.9586C70.9323 13.1308 73.9458 16.4026 73.7736 20.5929C73.5247 26.6477 66.7007 32.3484 56.3568 40.9685Z" fill="white"/>
</svg>
