<svg width="91" height="89" viewBox="0 0 91 89" fill="none" xmlns="http://www.w3.org/2000/svg">
<path fill-rule="evenodd" clip-rule="evenodd" d="M47.1704 24.396C53.2039 24.396 58.095 19.5048 58.095 13.4713C58.095 7.43776 53.2039 2.54662 47.1704 2.54662C41.1369 2.54662 36.2457 7.43776 36.2457 13.4713C36.2457 19.5048 41.1369 24.396 47.1704 24.396ZM25.1715 51.9465L37.5973 41.3676V55.0621L14.8241 74.4504C12.4193 76.4978 12.1295 80.107 14.1769 82.5119C16.2243 84.9167 19.8336 85.2065 22.2384 83.1591L41.2524 66.9712L60.9254 67.097V80.4712C60.9254 83.6076 63.4679 86.1502 66.6043 86.1502C69.7407 86.1502 72.2832 83.6076 72.2832 80.4712V61.3904C72.2832 58.254 69.7407 55.7115 66.6043 55.7115C66.3264 55.7115 66.0532 55.7314 65.786 55.77L56.9111 55.7133V39.5663L70.8678 51.4485C73.2726 53.4959 76.8819 53.2062 78.9292 50.8013C80.9766 48.3965 80.6869 44.7873 78.282 42.7399L59.0533 26.3692C57.8691 25.361 56.3927 24.9195 54.9546 25.0183C54.6875 24.9803 54.4144 24.9607 54.1367 24.9607H41.6047C41.2828 24.9607 40.967 24.9871 40.6595 25.0379C39.5575 25.1567 38.4784 25.5965 37.5709 26.3692L17.7572 43.2379C15.3524 45.2853 15.0627 48.8945 17.11 51.2993C19.1574 53.7042 22.7667 53.9939 25.1715 51.9465Z" fill="white"/>
<path d="M37.5973 41.3676H39.5973C39.5973 40.5878 39.144 39.8791 38.436 39.552C37.7281 39.225 36.8946 39.3393 36.3008 39.8448L37.5973 41.3676ZM25.1715 51.9465L26.468 53.4694L26.468 53.4694L25.1715 51.9465ZM37.5973 55.0621L38.8938 56.585C39.3401 56.205 39.5973 55.6483 39.5973 55.0621H37.5973ZM14.8241 74.4504L16.1206 75.9733L16.1206 75.9733L14.8241 74.4504ZM14.1769 82.5119L15.6998 81.2154L15.6998 81.2154L14.1769 82.5119ZM22.2384 83.1591L23.5349 84.6819L23.5349 84.6819L22.2384 83.1591ZM41.2524 66.9712L41.2651 64.9712C40.7856 64.9682 40.321 65.1375 39.9559 65.4483L41.2524 66.9712ZM60.9254 67.097H62.9254C62.9254 65.9974 62.0377 65.104 60.9382 65.097L60.9254 67.097ZM65.786 55.77L65.7732 57.77C65.873 57.7706 65.9728 57.7638 66.0717 57.7495L65.786 55.77ZM56.9111 55.7133H54.9111C54.9111 56.8128 55.7987 57.7062 56.8983 57.7132L56.9111 55.7133ZM56.9111 39.5663L58.2076 38.0434C57.6138 37.5379 56.7803 37.4236 56.0723 37.7506C55.3644 38.0777 54.9111 38.7864 54.9111 39.5663H56.9111ZM70.8678 51.4485L72.1643 49.9257L72.1643 49.9257L70.8678 51.4485ZM78.9292 50.8013L77.4064 49.5048L77.4064 49.5048L78.9292 50.8013ZM78.282 42.7399L76.9855 44.2627L76.9855 44.2627L78.282 42.7399ZM59.0533 26.3692L57.7568 27.8921L57.7568 27.8921L59.0533 26.3692ZM54.9546 25.0183L54.673 26.9984C54.8117 27.0181 54.952 27.0232 55.0917 27.0136L54.9546 25.0183ZM40.6595 25.0379L40.874 27.0263C40.9113 27.0223 40.9484 27.0173 40.9854 27.0111L40.6595 25.0379ZM37.5709 26.3692L38.8674 27.8921L38.8674 27.8921L37.5709 26.3692ZM17.7572 43.2379L16.4607 41.715L16.4607 41.715L17.7572 43.2379ZM17.11 51.2993L15.5872 52.5958L15.5872 52.5958L17.11 51.2993ZM56.095 13.4713C56.095 18.4003 52.0993 22.396 47.1704 22.396V26.396C54.3085 26.396 60.095 20.6094 60.095 13.4713H56.095ZM47.1704 4.54662C52.0993 4.54662 56.095 8.54233 56.095 13.4713H60.095C60.095 6.3332 54.3085 0.546623 47.1704 0.546623V4.54662ZM38.2457 13.4713C38.2457 8.54233 42.2414 4.54662 47.1704 4.54662V0.546623C40.0323 0.546623 34.2457 6.33319 34.2457 13.4713H38.2457ZM47.1704 22.396C42.2414 22.396 38.2457 18.4003 38.2457 13.4713H34.2457C34.2457 20.6094 40.0323 26.396 47.1704 26.396V22.396ZM36.3008 39.8448L23.875 50.4237L26.468 53.4694L38.8938 42.8905L36.3008 39.8448ZM39.5973 55.0621V41.3676H35.5973V55.0621H39.5973ZM16.1206 75.9733L38.8938 56.585L36.3008 53.5393L13.5276 72.9276L16.1206 75.9733ZM15.6998 81.2154C14.3684 79.6516 14.5569 77.3046 16.1206 75.9733L13.5276 72.9276C10.2818 75.691 9.89066 80.5625 12.6541 83.8084L15.6998 81.2154ZM20.9419 81.6362C19.3781 82.9676 17.0311 82.7791 15.6998 81.2154L12.6541 83.8084C15.4175 87.0542 20.289 87.4454 23.5349 84.6819L20.9419 81.6362ZM39.9559 65.4483L20.9419 81.6362L23.5349 84.6819L42.5489 68.494L39.9559 65.4483ZM60.9382 65.097L41.2651 64.9712L41.2396 68.9712L60.9126 69.0969L60.9382 65.097ZM62.9254 80.4712V67.097H58.9254V80.4712H62.9254ZM66.6043 84.1502C64.5725 84.1502 62.9254 82.5031 62.9254 80.4712H58.9254C58.9254 84.7122 62.3634 88.1502 66.6043 88.1502V84.1502ZM70.2832 80.4712C70.2832 82.503 68.6361 84.1502 66.6043 84.1502V88.1502C70.8453 88.1502 74.2832 84.7122 74.2832 80.4712H70.2832ZM70.2832 61.3904V80.4712H74.2832V61.3904H70.2832ZM66.6043 57.7115C68.6361 57.7115 70.2832 59.3586 70.2832 61.3904H74.2832C74.2832 57.1494 70.8452 53.7115 66.6043 53.7115V57.7115ZM66.0717 57.7495C66.2445 57.7245 66.4223 57.7115 66.6043 57.7115V53.7115C66.2305 53.7115 65.8618 53.7383 65.5003 53.7905L66.0717 57.7495ZM56.8983 57.7132L65.7732 57.77L65.7987 53.77L56.9239 53.7133L56.8983 57.7132ZM54.9111 39.5663V55.7133H58.9111V39.5663H54.9111ZM72.1643 49.9257L58.2076 38.0434L55.6146 41.0891L69.5713 52.9714L72.1643 49.9257ZM77.4064 49.5048C76.075 51.0686 73.7281 51.257 72.1643 49.9257L69.5713 52.9714C72.8172 55.7348 77.6887 55.3437 80.4521 52.0978L77.4064 49.5048ZM76.9855 44.2627C78.5493 45.5941 78.7377 47.941 77.4064 49.5048L80.4521 52.0978C83.2155 48.852 82.8244 43.9805 79.5785 41.217L76.9855 44.2627ZM57.7568 27.8921L76.9855 44.2627L79.5785 41.217L60.3498 24.8464L57.7568 27.8921ZM55.0917 27.0136C56.0297 26.9492 56.9862 27.236 57.7568 27.8921L60.3498 24.8464C58.7519 23.4859 56.7557 22.8898 54.8175 23.023L55.0917 27.0136ZM54.1367 26.9607C54.3199 26.9607 54.4988 26.9736 54.673 26.9984L55.2363 23.0382C54.8761 22.987 54.5089 22.9607 54.1367 22.9607V26.9607ZM41.6047 26.9607H54.1367V22.9607H41.6047V26.9607ZM40.9854 27.0111C41.1857 26.9781 41.3924 26.9607 41.6047 26.9607V22.9607C41.1732 22.9607 40.7484 22.9961 40.3336 23.0646L40.9854 27.0111ZM38.8674 27.8921C39.4596 27.3878 40.1586 27.1035 40.874 27.0263L40.445 23.0494C38.9565 23.21 37.4972 23.8053 36.2744 24.8464L38.8674 27.8921ZM19.0537 44.7607L38.8674 27.8921L36.2744 24.8464L16.4607 41.715L19.0537 44.7607ZM18.6329 50.0028C17.3015 48.439 17.49 46.0921 19.0537 44.7607L16.4607 41.715C13.2149 44.4785 12.8238 49.35 15.5872 52.5958L18.6329 50.0028ZM23.875 50.4237C22.3112 51.755 19.9642 51.5666 18.6329 50.0028L15.5872 52.5958C18.3506 55.8417 23.2221 56.2328 26.468 53.4694L23.875 50.4237Z" fill="#383838"/>
</svg>
