<svg width="226" height="50" viewBox="0 0 226 50" fill="none" xmlns="http://www.w3.org/2000/svg">
<g clip-path="url(#clip0_2883_11182)">
<rect width="50" height="50" fill="#E82525"/>
<path fill-rule="evenodd" clip-rule="evenodd" d="M41.1094 13.3447C41.1094 11.1911 39.3636 9.44531 37.21 9.44531H26.4867V40.5564H37.21C39.3636 40.5564 41.1094 38.8106 41.1094 36.657V29.6436H35.2603V33.522C35.2603 34.3296 34.6056 34.9843 33.7981 34.9843H33.5543C32.7468 34.9843 32.0921 34.3296 32.0921 33.522V16.4797C32.0921 15.6721 32.7468 15.0175 33.5543 15.0175H33.7981C34.6056 15.0175 35.2603 15.6721 35.2603 16.4797V20.8003H41.1094V13.3447Z" fill="white"/>
<path d="M25.5093 9.44531V8.47309H24.537H13.7793C11.0888 8.47309 8.90775 10.6542 8.90775 13.3447V34.0121H8.3316C6.56736 34.0121 5.13715 35.4423 5.13715 37.2065V40.5564V41.5286H6.10938H28.6094H29.5816V40.5564V37.2065C29.5816 35.4423 28.1514 34.0121 26.3872 34.0121H25.5093V9.44531Z" fill="white" stroke="#E82525" stroke-width="1.94444"/>
<path d="M21.6724 22.0198L22.4571 15.2479C22.523 14.7788 22.5559 14.5443 22.5459 14.4761C22.4864 14.0698 21.9772 13.9193 21.7052 14.2275C21.6596 14.2793 21.559 14.4938 21.3579 14.9228L21.3578 14.9228C20.5399 16.6676 19.5803 19.4454 18.1443 20.1399C16.7083 20.8343 13.8859 20.2492 12.568 20.0444C12.1651 19.9817 11.9637 19.9504 11.8964 19.9588C11.4975 20.0086 11.3305 20.4941 11.6148 20.7776C11.6627 20.8255 11.841 20.9241 12.1975 21.1213L16.2416 23.3579C16.3202 23.4014 16.3595 23.4231 16.3895 23.4465C16.5546 23.5752 16.6176 23.7953 16.5457 23.9916C16.5326 24.0272 16.5107 24.0664 16.467 24.1447L12.7179 30.8638L12.7178 30.8639C12.4385 31.3646 12.2987 31.615 12.2816 31.6912C12.1791 32.1458 12.6621 32.5086 13.0719 32.2847C13.1406 32.2472 13.3433 32.0441 13.7487 31.638L13.7487 31.638L17.9512 27.4277C18.0519 27.3269 18.1022 27.2764 18.1443 27.2489C18.3817 27.0937 18.7015 27.1752 18.8352 27.4249C18.8589 27.4692 18.8789 27.5375 18.9187 27.6742L20.5985 33.4364C20.7718 34.031 20.8585 34.3283 20.9012 34.3945C21.1564 34.7901 21.7614 34.6951 21.8823 34.2404C21.9026 34.1643 21.8934 33.8548 21.875 33.2359L21.651 22.4089L21.651 22.4087C21.65 22.3763 21.6496 22.36 21.6494 22.3438C21.6483 22.2571 21.653 22.1704 21.6636 22.0843C21.6656 22.0682 21.6679 22.0519 21.6724 22.0198Z" fill="#E82525"/>
<path d="M18.7404 18.3439C18.7404 19.1422 18.0915 19.7894 17.2911 19.7894C16.4906 19.7894 15.8417 19.1422 15.8417 18.3439C15.8417 17.5456 16.4906 16.8985 17.2911 16.8985C18.0915 16.8985 18.7404 17.5456 18.7404 18.3439Z" fill="#E82525"/>
<path d="M19.324 34.9851H9.66992V33.1953L19.324 34.9851Z" fill="#E82525"/>
<rect x="12" y="38.5" width="10.5" height="3.5" fill="#E82525"/>
</g>
<g clip-path="url(#clip1_2883_11182)">
<path fill-rule="evenodd" clip-rule="evenodd" d="M70.4784 16.834C70.4784 14.8649 71.3139 14.5174 73.1043 14.5174H77.2819V35.4826H70.4784V16.834ZM210.726 14.5174H216.216V39.6525H220.394C220.513 39.6525 220.633 39.6525 220.633 39.4208V14.5174H226.004V10.1158H210.726V14.5174ZM130.994 15.3282V34.4402C130.994 34.9035 130.994 35.251 131.113 35.5985C131.113 35.7143 131.232 35.9459 131.232 36.0618C131.59 37.4517 132.784 38.61 134.216 39.1892C134.813 39.4209 135.649 39.6525 136.484 39.6525H140.781C142.93 39.6525 144.72 38.61 145.675 36.7568C146.391 35.3668 146.152 33.5135 146.152 31.8919H142.094C141.617 31.8919 142.094 32.9344 141.617 34.2085C141.259 35.0193 140.781 35.251 139.826 35.251H137.2C135.887 35.251 135.291 34.3243 135.291 33.166V16.7181C135.291 16.0232 135.529 15.3282 135.768 14.9807C136.365 14.2857 138.513 14.5174 139.588 14.5174C140.065 14.5174 140.423 14.5174 140.781 14.6332C140.901 14.749 140.901 14.6332 141.02 14.749H141.139C141.378 14.8649 141.497 15.0965 141.497 15.3282C141.975 16.2548 141.736 16.9498 141.975 17.8764H146.152C146.152 15.0965 146.51 12.7799 143.885 11.0425C143.049 10.4633 141.855 10.1158 140.781 10.1158H136.126C134.933 10.1158 133.978 10.5792 133.142 11.0425C131.829 11.8533 130.994 13.5907 130.994 15.3282ZM200.58 23.2046H196.045V14.5174H200.222C202.132 14.5174 202.729 15.0965 202.729 17.1815C202.729 18.5714 202.967 21.583 202.251 22.6255C201.893 23.0888 201.416 23.2046 200.58 23.2046ZM191.748 39.6525H195.806C195.925 39.6525 196.045 39.6525 196.045 39.4208V27.722H201.893C203.922 27.722 205.713 26.4479 206.31 25.1737C206.787 24.3629 206.906 23.668 206.906 22.278V14.6332C206.787 13.7066 206.548 12.8958 205.951 12.0849L205.116 11.1583C204.28 10.4633 202.848 10 201.774 10H191.748V39.6525ZM150.927 39.6525H155.224V14.749C155.224 14.6332 155.224 14.5174 155.462 14.5174H162.027V39.6525H166.085C166.205 39.6525 166.324 39.6525 166.324 39.4208V10.2317C166.324 10.1158 166.324 10 166.085 10H150.927V39.6525ZM110.106 10.2317V39.8842C110.106 40 110.106 40.1158 110.345 40.1158H114.522V27.8378H121.326V39.8842C121.326 40 121.326 40.1158 121.564 40.1158H125.742V10.2317C125.742 10.1158 125.742 10 125.503 10H121.564C121.445 10 121.326 10 121.326 10.2317V23.2046H114.522V10H110.345C110.106 10 110.106 10 110.106 10.2317ZM175.037 31.7761V17.8764C175.037 16.7181 175.037 14.9807 176.112 14.6332C176.828 14.4015 180.528 14.4015 181.244 14.5174C182.318 14.749 182.557 16.0232 182.557 17.0656V32.3552C182.557 33.166 182.438 34.4402 181.721 34.7876C181.005 35.1351 178.141 35.0193 177.066 35.0193C176.708 35.0193 176.231 34.9035 175.992 34.7876C175.157 34.4402 175.037 32.8185 175.037 31.7761ZM170.74 15.444V34.3243C170.74 34.7876 170.86 35.0193 170.86 35.4826C170.979 36.4093 171.576 37.4517 172.292 38.1467C173.008 38.8417 173.963 39.305 174.918 39.5367C175.992 39.7683 180.05 39.6525 181.363 39.6525C182.796 39.6525 184.228 39.0734 185.302 38.1467C185.78 37.6834 186.257 36.9884 186.496 36.2934C186.615 36.0618 186.615 35.9459 186.615 35.8301C186.735 35.4826 186.735 35.0193 186.735 34.6718V15.0965C186.735 13.1274 185.541 11.2741 183.631 10.5792C182.915 10.3475 182.318 10.1158 181.483 10.1158H175.873C174.202 10.1158 172.411 11.0425 171.457 12.4324C171.098 13.2432 170.74 14.5174 170.74 15.444ZM92.3212 32.471V17.4131C92.3212 15.3282 92.6793 14.5174 94.5891 14.5174H97.573C98.4086 14.5174 99.0054 14.6332 99.3634 15.0965C99.7215 15.5598 99.8409 16.3707 99.8409 17.0656V32.7027C99.8409 34.0927 99.6021 35.251 98.1698 35.3668C96.9762 35.3668 93.5148 35.7143 92.7987 35.0193C92.5599 34.556 92.3212 33.5135 92.3212 32.471ZM88.0243 15.3282V34.6718C88.0243 35.8301 88.3824 36.8726 88.9792 37.6834C89.0985 37.9151 89.4566 38.2625 89.576 38.3784C90.6502 39.305 92.0825 39.8842 93.5148 39.8842H98.6473C101.631 39.8842 104.257 37.6834 104.257 34.9035V14.9807C104.257 14.2857 104.018 13.4749 103.78 12.8958C102.944 11.1583 100.796 10 98.5279 10H93.9923C93.0374 10 92.3212 10.1158 91.6051 10.3475C89.576 11.0425 88.0243 12.8958 88.0243 15.3282ZM66.1815 15.7915V35.4826C64.8685 35.4826 63.7943 35.7143 63.0781 36.6409C62.2426 37.6834 62.0039 38.7259 62.0039 40H85.6371C85.9952 40 85.8758 39.4209 85.7564 39.1892C85.6371 38.2626 85.5177 37.5676 84.9209 36.8726C84.0854 35.7143 82.8918 35.4826 81.5789 35.4826V10.2317C81.5789 10.1158 81.5789 10 81.3401 10H71.672C69.5236 10 67.2557 11.39 66.5396 13.3591C66.3008 14.0541 66.1815 14.8649 66.1815 15.7915Z" fill="#383838"/>
</g>
<defs>
<clipPath id="clip0_2883_11182">
<rect width="50" height="50" rx="4" fill="white"/>
</clipPath>
<clipPath id="clip1_2883_11182">
<rect width="164" height="30" fill="white" transform="translate(62 10)"/>
</clipPath>
</defs>
</svg>
