<svg width="226" height="50" viewBox="0 0 226 50" fill="none" xmlns="http://www.w3.org/2000/svg">
<g clip-path="url(#clip0_877_1599)">
<rect width="50" height="50" fill="#E82525"/>
<path fill-rule="evenodd" clip-rule="evenodd" d="M41.1104 13.3444C41.1104 11.1909 39.3645 9.44506 37.211 9.44506H26.4877V40.5562H37.211C39.3645 40.5562 41.1104 38.8104 41.1104 36.6568V29.6433H35.2613V33.5218C35.2613 34.3293 34.6066 34.984 33.799 34.984H33.5553C32.7477 34.984 32.0931 34.3293 32.0931 33.5218V16.4795C32.0931 15.6719 32.7477 15.0172 33.5553 15.0172H33.799C34.6066 15.0172 35.2613 15.6719 35.2613 16.4795V20.8H41.1104V13.3444Z" fill="white"/>
<path d="M25.5102 9.44506V8.47284H24.538H13.7803C11.0898 8.47284 8.90872 10.6539 8.90872 13.3444V34.0118H8.33258C6.56833 34.0118 5.13813 35.442 5.13813 37.2062V40.5562V41.5284H6.11035H28.6104H29.5826V40.5562V37.2062C29.5826 35.442 28.1524 34.0118 26.3881 34.0118H25.5102V9.44506Z" fill="white" stroke="#E82525" stroke-width="1.94444"/>
<path d="M21.6734 22.0199L22.4581 15.248C22.524 14.7789 22.5569 14.5444 22.5469 14.4762C22.4873 14.0699 21.9782 13.9194 21.7062 14.2276C21.6605 14.2793 21.56 14.4939 21.3588 14.9229L21.3588 14.9229C20.5409 16.6677 19.5813 19.4455 18.1453 20.1399C16.7093 20.8344 13.8868 20.2493 12.5689 20.0444C12.1661 19.9818 11.9647 19.9505 11.8974 19.9589C11.4985 20.0087 11.3314 20.4942 11.6157 20.7777C11.6637 20.8255 11.842 20.9241 12.1985 21.1213L16.2426 23.358C16.3212 23.4015 16.3605 23.4232 16.3905 23.4466C16.5555 23.5753 16.6186 23.7954 16.5466 23.9916C16.5336 24.0273 16.5117 24.0665 16.468 24.1448L12.7189 30.8639L12.7188 30.8639C12.4394 31.3646 12.2997 31.615 12.2825 31.6913C12.18 32.1459 12.6631 32.5086 13.0729 32.2848C13.1416 32.2473 13.3443 32.0442 13.7497 31.6381L13.7497 31.6381L17.9522 27.4278C18.0528 27.3269 18.1032 27.2765 18.1453 27.249C18.3827 27.0938 18.7025 27.1753 18.8362 27.425C18.8599 27.4693 18.8798 27.5376 18.9197 27.6743L20.5995 33.4365C20.7728 34.0311 20.8594 34.3284 20.9022 34.3946C21.1574 34.7902 21.7624 34.6952 21.8833 34.2404C21.9035 34.1643 21.8944 33.8549 21.876 33.236L21.652 22.409L21.652 22.4088C21.651 22.3764 21.6505 22.3601 21.6503 22.3439C21.6492 22.2572 21.654 22.1705 21.6646 22.0844C21.6666 22.0683 21.6689 22.052 21.6734 22.0199Z" fill="#E82525"/>
<path d="M18.7414 18.3443C18.7414 19.1426 18.0925 19.7897 17.292 19.7897C16.4916 19.7897 15.8427 19.1426 15.8427 18.3443C15.8427 17.546 16.4916 16.8988 17.292 16.8988C18.0925 16.8988 18.7414 17.546 18.7414 18.3443Z" fill="#E82525"/>
<path d="M19.325 34.9844H9.6709V33.1946L19.325 34.9844Z" fill="#E82525"/>
<rect x="12.001" y="38.4999" width="10.5" height="3.5" fill="#E82525"/>
</g>
<g clip-path="url(#clip1_877_1599)">
<path fill-rule="evenodd" clip-rule="evenodd" d="M70.4775 16.834C70.4775 14.8649 71.313 14.5174 73.1034 14.5174H77.2809V35.4827H70.4775V16.834ZM210.725 14.5174H216.215V39.6525H220.393C220.512 39.6525 220.632 39.6525 220.632 39.4209V14.5174H226.003V10.1159H210.725V14.5174ZM130.993 15.3282V34.4402C130.993 34.9035 130.993 35.251 131.112 35.5985C131.112 35.7143 131.231 35.946 131.231 36.0618C131.59 37.4518 132.783 38.6101 134.215 39.1892C134.812 39.4209 135.648 39.6525 136.483 39.6525H140.78C142.929 39.6525 144.719 38.6101 145.674 36.7568C146.39 35.3668 146.151 33.5135 146.151 31.8919H142.093C141.616 31.8919 142.093 32.9344 141.616 34.2085C141.258 35.0193 140.78 35.251 139.825 35.251H137.199C135.886 35.251 135.29 34.3244 135.29 33.1661V16.7182C135.29 16.0232 135.528 15.3282 135.767 14.9807C136.364 14.2857 138.512 14.5174 139.587 14.5174C140.064 14.5174 140.422 14.5174 140.78 14.6332C140.9 14.7491 140.9 14.6332 141.019 14.7491H141.138C141.377 14.8649 141.496 15.0966 141.496 15.3282C141.974 16.2549 141.735 16.9498 141.974 17.8765H146.151C146.151 15.0966 146.509 12.78 143.884 11.0425C143.048 10.4634 141.854 10.1159 140.78 10.1159H136.125C134.932 10.1159 133.977 10.5792 133.141 11.0425C131.828 11.8533 130.993 13.5908 130.993 15.3282ZM200.579 23.2047H196.044V14.5174H200.221C202.131 14.5174 202.728 15.0966 202.728 17.1815C202.728 18.5715 202.967 21.583 202.25 22.6255C201.892 23.0888 201.415 23.2047 200.579 23.2047ZM191.747 39.6525H195.805C195.924 39.6525 196.044 39.6525 196.044 39.4209V27.722H201.892C203.921 27.722 205.712 26.4479 206.309 25.1738C206.786 24.363 206.905 23.668 206.905 22.278V14.6332C206.786 13.7066 206.547 12.8958 205.95 12.085L205.115 11.1583C204.279 10.4634 202.847 10 201.773 10H191.747V39.6525ZM150.926 39.6525H155.223V14.7491C155.223 14.6332 155.223 14.5174 155.461 14.5174H162.026V39.6525H166.084C166.204 39.6525 166.323 39.6525 166.323 39.4209V10.2317C166.323 10.1159 166.323 10 166.084 10H150.926V39.6525ZM110.105 10.2317V39.8842C110.105 40 110.105 40.1159 110.344 40.1159H114.521V27.8379H121.325V39.8842C121.325 40 121.325 40.1159 121.563 40.1159H125.741V10.2317C125.741 10.1159 125.741 10 125.502 10H121.563C121.444 10 121.325 10 121.325 10.2317V23.2047H114.521V10H110.344C110.105 10 110.105 10 110.105 10.2317ZM175.036 31.7761V17.8765C175.036 16.7182 175.036 14.9807 176.111 14.6332C176.827 14.4016 180.527 14.4016 181.243 14.5174C182.317 14.7491 182.556 16.0232 182.556 17.0657V32.3552C182.556 33.1661 182.437 34.4402 181.721 34.7877C181.004 35.1352 178.14 35.0193 177.065 35.0193C176.707 35.0193 176.23 34.9035 175.991 34.7877C175.156 34.4402 175.036 32.8186 175.036 31.7761ZM170.739 15.444V34.3244C170.739 34.7877 170.859 35.0193 170.859 35.4827C170.978 36.4093 171.575 37.4518 172.291 38.1467C173.007 38.8417 173.962 39.305 174.917 39.5367C175.991 39.7684 180.049 39.6525 181.362 39.6525C182.795 39.6525 184.227 39.0734 185.301 38.1467C185.779 37.6834 186.256 36.9884 186.495 36.2935C186.614 36.0618 186.614 35.946 186.614 35.8301C186.734 35.4827 186.734 35.0193 186.734 34.6718V15.0966C186.734 13.1274 185.54 11.2742 183.63 10.5792C182.914 10.3475 182.317 10.1159 181.482 10.1159H175.872C174.201 10.1159 172.41 11.0425 171.456 12.4325C171.098 13.2433 170.739 14.5174 170.739 15.444ZM92.3202 32.4711V17.4132C92.3202 15.3282 92.6783 14.5174 94.5881 14.5174H97.5721C98.4076 14.5174 99.0044 14.6332 99.3625 15.0966C99.7205 15.5599 99.8399 16.3707 99.8399 17.0657V32.7027C99.8399 34.0927 99.6012 35.251 98.1689 35.3668C96.9753 35.3668 93.5138 35.7143 92.7977 35.0193C92.559 34.556 92.3202 33.5135 92.3202 32.4711ZM88.0233 15.3282V34.6718C88.0233 35.8301 88.3814 36.8726 88.9782 37.6834C89.0975 37.9151 89.4556 38.2626 89.575 38.3784C90.6492 39.305 92.0815 39.8842 93.5138 39.8842H98.6463C101.63 39.8842 104.256 37.6834 104.256 34.9035V14.9807C104.256 14.2857 104.017 13.4749 103.779 12.8958C102.943 11.1583 100.795 10 98.5269 10H93.9913C93.0364 10 92.3202 10.1159 91.6041 10.3475C89.575 11.0425 88.0233 12.8958 88.0233 15.3282ZM66.1805 15.7915V35.4827C64.8676 35.4827 63.7933 35.7143 63.0772 36.641C62.2416 37.6834 62.0029 38.7259 62.0029 40H85.6361C85.9942 40 85.8748 39.4209 85.7555 39.1892C85.6361 38.2626 85.5168 37.5676 84.92 36.8726C84.0844 35.7143 82.8908 35.4827 81.5779 35.4827V10.2317C81.5779 10.1159 81.5779 10 81.3392 10H71.6711C69.5226 10 67.2547 11.39 66.5386 13.3591C66.2999 14.0541 66.1805 14.8649 66.1805 15.7915Z" fill="#383838"/>
</g>
<defs>
<clipPath id="clip0_877_1599">
<rect width="50" height="50" rx="4" fill="white"/>
</clipPath>
<clipPath id="clip1_877_1599">
<rect width="164" height="30" fill="white" transform="translate(62 10)"/>
</clipPath>
</defs>
</svg>
