<svg width="164" height="30" viewBox="0 0 164 30" fill="none" xmlns="http://www.w3.org/2000/svg">
<g clip-path="url(#clip0_2745_55250)">
<path fill-rule="evenodd" clip-rule="evenodd" d="M8.47746 6.83401C8.47746 4.8649 9.31297 4.51741 11.1034 4.51741H15.2809V25.4827H8.47746V6.83401ZM148.725 4.51741H154.215V29.6525H158.393C158.512 29.6525 158.632 29.6525 158.632 29.4209V4.51741H164.003V0.115861H148.725V4.51741ZM68.9927 5.32822V24.4402C68.9927 24.9035 68.9927 25.251 69.1121 25.5985C69.1121 25.7143 69.2314 25.946 69.2314 26.0618C69.5895 27.4518 70.7831 28.6101 72.2154 29.1892C72.8122 29.4209 73.6477 29.6525 74.4833 29.6525H78.7802C80.9287 29.6525 82.7191 28.6101 83.6739 26.7568C84.3901 25.3668 84.1514 23.5135 84.1514 21.8919H80.0932C79.6157 21.8919 80.0932 22.9344 79.6157 24.2085C79.2576 25.0193 78.7802 25.251 77.8253 25.251H75.1994C73.8865 25.251 73.2897 24.3244 73.2897 23.1661V6.71818C73.2897 6.0232 73.5284 5.32822 73.7671 4.98073C74.3639 4.28574 76.5124 4.51741 77.5866 4.51741C78.064 4.51741 78.4221 4.51741 78.7802 4.63323C78.8996 4.74907 78.8996 4.63323 79.0189 4.74906H79.1383C79.377 4.8649 79.4964 5.09656 79.4964 5.32822C79.9738 6.25486 79.7351 6.94984 79.9738 7.87648H84.1514C84.1514 5.09656 84.5095 2.77995 81.8836 1.0425C81.048 0.463351 79.8544 0.115861 78.7802 0.115861H74.1252C72.9316 0.115861 71.9767 0.579181 71.1412 1.0425C69.8282 1.85331 68.9927 3.59076 68.9927 5.32822ZM138.579 13.2047H134.044V4.51741H138.221C140.131 4.51741 140.728 5.09656 140.728 7.1815C140.728 8.57146 140.967 11.583 140.25 12.6255C139.892 13.0888 139.415 13.2047 138.579 13.2047ZM129.747 29.6525H133.805C133.924 29.6525 134.044 29.6525 134.044 29.4209V17.722H139.892C141.921 17.722 143.712 16.4479 144.309 15.1738C144.786 14.363 144.905 13.668 144.905 12.278V4.63323C144.786 3.70659 144.547 2.89578 143.95 2.08497L143.115 1.15833C142.279 0.463351 140.847 3.05176e-05 139.773 3.05176e-05H129.747V29.6525ZM88.9258 29.6525H93.2227V4.74906C93.2227 4.63323 93.2227 4.51741 93.4614 4.51741H100.026V29.6525H104.084C104.204 29.6525 104.323 29.6525 104.323 29.4209V0.231691C104.323 0.115861 104.323 3.05176e-05 104.084 3.05176e-05H88.9258V29.6525ZM48.1048 0.231691V29.8842C48.1048 30 48.1048 30.1159 48.3435 30.1159H52.5211V17.8379H59.3246V29.8842C59.3246 30 59.3246 30.1159 59.5633 30.1159H63.7409V0.231691C63.7409 0.115861 63.7409 3.05176e-05 63.5022 3.05176e-05H59.5633C59.444 3.05176e-05 59.3246 3.05176e-05 59.3246 0.231691V13.2047H52.5211V3.05176e-05H48.3435C48.1048 3.05176e-05 48.1048 3.05176e-05 48.1048 0.231691ZM113.036 21.7761V7.87648C113.036 6.71818 113.036 4.98073 114.111 4.63323C114.827 4.40158 118.527 4.40158 119.243 4.51741C120.317 4.74907 120.556 6.0232 120.556 7.06567V22.3552C120.556 23.1661 120.437 24.4402 119.721 24.7877C119.004 25.1352 116.14 25.0193 115.065 25.0193C114.707 25.0193 114.23 24.9035 113.991 24.7877C113.156 24.4402 113.036 22.8186 113.036 21.7761ZM108.739 5.44405V24.3244C108.739 24.7877 108.859 25.0193 108.859 25.4827C108.978 26.4093 109.575 27.4518 110.291 28.1467C111.007 28.8417 111.962 29.305 112.917 29.5367C113.991 29.7684 118.049 29.6525 119.362 29.6525C120.795 29.6525 122.227 29.0734 123.301 28.1467C123.779 27.6834 124.256 26.9884 124.495 26.2935C124.614 26.0618 124.614 25.946 124.614 25.8301C124.734 25.4827 124.734 25.0193 124.734 24.6718V5.09656C124.734 3.12744 123.54 1.27416 121.63 0.579181C120.914 0.347521 120.317 0.115861 119.482 0.115861H113.872C112.201 0.115861 110.41 1.0425 109.456 2.43246C109.098 3.24327 108.739 4.5174 108.739 5.44405ZM30.3202 22.4711V7.41316C30.3202 5.32822 30.6783 4.51741 32.5881 4.51741H35.5721C36.4076 4.51741 37.0044 4.63324 37.3625 5.09656C37.7205 5.55988 37.8399 6.37069 37.8399 7.06567V22.7027C37.8399 24.0927 37.6012 25.251 36.1689 25.3668C34.9753 25.3668 31.5138 25.7143 30.7977 25.0193C30.559 24.556 30.3202 23.5135 30.3202 22.4711ZM26.0233 5.32822V24.6718C26.0233 25.8301 26.3814 26.8726 26.9782 27.6834C27.0975 27.9151 27.4556 28.2626 27.575 28.3784C28.6492 29.305 30.0815 29.8842 31.5138 29.8842H36.6463C39.6303 29.8842 42.2562 27.6834 42.2562 24.9035V4.98073C42.2562 4.28574 42.0175 3.47493 41.7788 2.89578C40.9432 1.15833 38.7948 3.05176e-05 36.5269 3.05176e-05H31.9913C31.0364 3.05176e-05 30.3202 0.115861 29.6041 0.347521C27.575 1.0425 26.0233 2.89578 26.0233 5.32822ZM4.18051 5.79154V25.4827C2.86756 25.4827 1.79332 25.7143 1.07717 26.641C0.241649 27.6834 0.00292969 28.7259 0.00292969 30H23.6361C23.9942 30 23.8748 29.4209 23.7555 29.1892C23.6361 28.2626 23.5168 27.5676 22.92 26.8726C22.0844 25.7143 20.8908 25.4827 19.5779 25.4827V0.231691C19.5779 0.115861 19.5779 3.05176e-05 19.3392 3.05176e-05H9.67105C7.52258 3.05176e-05 5.25475 1.38999 4.53859 3.3591C4.29987 4.05408 4.18051 4.86489 4.18051 5.79154Z" fill="#383838"/>
</g>
<defs>
<clipPath id="clip0_2745_55250">
<rect width="164" height="30" fill="white"/>
</clipPath>
</defs>
</svg>
