<svg width="16" height="16" viewBox="0 0 16 16" fill="none" xmlns="http://www.w3.org/2000/svg">
<g clip-path="url(#clip0_1701_13668)">
<path d="M7.99479 10.6654C9.46755 10.6654 10.6615 9.47146 10.6615 7.9987C10.6615 6.52594 9.46755 5.33203 7.99479 5.33203C6.52203 5.33203 5.32812 6.52594 5.32812 7.9987C5.32812 9.47146 6.52203 10.6654 7.99479 10.6654Z" stroke="#383838" stroke-width="1.5" stroke-linecap="round" stroke-linejoin="round"/>
<path d="M10.6615 5.33162V8.66495C10.6615 9.19538 10.8722 9.70409 11.2473 10.0792C11.6223 10.4542 12.131 10.665 12.6615 10.665C13.1919 10.665 13.7006 10.4542 14.0757 10.0792C14.4508 9.70409 14.6615 9.19538 14.6615 8.66495V7.99828C14.6614 6.49364 14.1523 5.03327 13.217 3.85464C12.2817 2.67601 10.9752 1.84843 9.50989 1.50648C8.04462 1.16453 6.50675 1.32831 5.14636 1.9712C3.78597 2.61408 2.68306 3.69825 2.01697 5.04743C1.35088 6.39661 1.16078 7.93144 1.47758 9.40236C1.79438 10.8733 2.59945 12.1938 3.76188 13.1491C4.92432 14.1045 6.37575 14.6385 7.88018 14.6644C9.3846 14.6903 10.8535 14.2064 12.0481 13.2916" stroke="#383838" stroke-width="1.5" stroke-linecap="round" stroke-linejoin="round"/>
</g>
<defs>
<clipPath id="clip0_1701_13668">
<rect width="16" height="16" fill="white"/>
</clipPath>
</defs>
</svg>
