<svg width="20" height="18" viewBox="0 0 20 18" fill="none" xmlns="http://www.w3.org/2000/svg">
<g clip-path="url(#clip0_2239_43264)">
<path d="M20 9C20 9.1705 19.9298 9.33401 19.8047 9.45457C19.6797 9.57513 19.5101 9.64286 19.3333 9.64286H17.9442C17.7854 10.5411 17.3025 11.3563 16.5807 11.9445C15.859 12.5326 14.9449 12.8559 14 12.8571H10.6667V14.7857H12.6667C13.3739 14.7857 14.0522 15.0566 14.5523 15.5389C15.0524 16.0211 15.3333 16.6752 15.3333 17.3571C15.3333 17.5276 15.2631 17.6912 15.1381 17.8117C15.013 17.9323 14.8435 18 14.6667 18C14.4899 18 14.3203 17.9323 14.1953 17.8117C14.0702 17.6912 14 17.5276 14 17.3571C14 17.0161 13.8595 16.6891 13.6095 16.448C13.3594 16.2069 13.0203 16.0714 12.6667 16.0714H10.6667V17.3571C10.6667 17.5276 10.5964 17.6912 10.4714 17.8117C10.3464 17.9323 10.1768 18 10 18C9.82319 18 9.65362 17.9323 9.5286 17.8117C9.40357 17.6912 9.33333 17.5276 9.33333 17.3571V16.0714H7.33333C6.97971 16.0714 6.64057 16.2069 6.39052 16.448C6.14048 16.6891 6 17.0161 6 17.3571C6 17.5276 5.92976 17.6912 5.80474 17.8117C5.67971 17.9323 5.51014 18 5.33333 18C5.15652 18 4.98695 17.9323 4.86193 17.8117C4.7369 17.6912 4.66667 17.5276 4.66667 17.3571C4.66667 16.6752 4.94762 16.0211 5.44772 15.5389C5.94781 15.0566 6.62609 14.7857 7.33333 14.7857H9.33333V12.8571H6C5.05506 12.8559 4.14099 12.5326 3.41927 11.9445C2.69755 11.3563 2.21463 10.5411 2.05583 9.64286H0.666667C0.489856 9.64286 0.320286 9.57513 0.195262 9.45457C0.0702379 9.33401 0 9.1705 0 9C0 8.8295 0.0702379 8.66599 0.195262 8.54543C0.320286 8.42487 0.489856 8.35714 0.666667 8.35714H2.66667C2.84348 8.35714 3.01305 8.42487 3.13807 8.54543C3.2631 8.66599 3.33333 8.8295 3.33333 9C3.33333 9.68198 3.61428 10.336 4.11438 10.8183C4.61448 11.3005 5.29276 11.5714 6 11.5714H14C14.7072 11.5714 15.3855 11.3005 15.8856 10.8183C16.3857 10.336 16.6667 9.68198 16.6667 9C16.6667 8.8295 16.7369 8.66599 16.8619 8.54543C16.987 8.42487 17.1565 8.35714 17.3333 8.35714H19.3333C19.5101 8.35714 19.6797 8.42487 19.8047 8.54543C19.9298 8.66599 20 8.8295 20 9ZM4.9925 9.84214C4.86743 9.70303 4.77481 9.53963 4.7209 9.36301C4.66698 9.18639 4.65304 9.00066 4.68 8.81839L5.82333 1.10411C5.86999 0.798231 6.02883 0.518623 6.27103 0.316039C6.51322 0.113455 6.82272 0.00132375 7.14333 0H12.8567C13.1773 0.00132375 13.4868 0.113455 13.729 0.316039C13.9712 0.518623 14.13 0.798231 14.1767 1.10411L15.32 8.81839C15.347 9.00074 15.333 9.18654 15.2791 9.36323C15.2251 9.53992 15.1324 9.70336 15.0072 9.8425C14.8821 9.98164 14.7273 10.0932 14.5536 10.1697C14.3798 10.2461 14.191 10.2857 14 10.2857H6C5.80891 10.2857 5.62006 10.2461 5.44623 10.1696C5.2724 10.093 5.11766 9.98138 4.9925 9.84214ZM6 9H14L12.8567 1.28571H7.1425L6 9Z" fill="#383838"/>
</g>
<defs>
<clipPath id="clip0_2239_43264">
<rect width="20" height="18" fill="white"/>
</clipPath>
</defs>
</svg>
