<svg width="36" height="68" viewBox="0 0 36 68" fill="none" xmlns="http://www.w3.org/2000/svg">
<path d="M6.41463 27.952C6.41463 29.5947 7.08663 30.416 8.43063 30.416C9.06529 30.416 9.55063 30.2293 9.88663 29.856C10.26 29.4453 10.4466 28.8107 10.4466 27.952V14.512C10.4466 13.6533 10.26 13.0373 9.88663 12.664C9.55063 12.2533 9.06529 12.048 8.43063 12.048C7.08663 12.048 6.41463 12.8693 6.41463 14.512V27.952ZM2.49463 14.792C2.49463 12.776 2.99863 11.2267 4.00663 10.144C5.01463 9.06133 6.48929 8.52 8.43063 8.52C10.372 8.52 11.8466 9.06133 12.8546 10.144C13.8626 11.2267 14.3666 12.776 14.3666 14.792V27.672C14.3666 29.688 13.8626 31.2373 12.8546 32.32C11.8466 33.4027 10.372 33.944 8.43063 33.944C6.48929 33.944 5.01463 33.4027 4.00663 32.32C2.99863 31.2373 2.49463 29.688 2.49463 27.672V14.792ZM23.8866 8.8H27.5266L12.0706 48H8.43063L23.8866 8.8ZM25.8466 42.456C25.8466 44.0987 26.5186 44.92 27.8626 44.92C28.4973 44.92 28.9826 44.7333 29.3186 44.36C29.692 43.9493 29.8786 43.3147 29.8786 42.456V29.016C29.8786 28.1573 29.692 27.5413 29.3186 27.168C28.9826 26.7573 28.4973 26.552 27.8626 26.552C26.5186 26.552 25.8466 27.3733 25.8466 29.016V42.456ZM21.9266 29.296C21.9266 27.28 22.4306 25.7307 23.4386 24.648C24.4466 23.5653 25.9213 23.024 27.8626 23.024C29.804 23.024 31.2786 23.5653 32.2866 24.648C33.2946 25.7307 33.7986 27.28 33.7986 29.296V42.176C33.7986 44.192 33.2946 45.7413 32.2866 46.824C31.2786 47.9067 29.804 48.448 27.8626 48.448C25.9213 48.448 24.4466 47.9067 23.4386 46.824C22.4306 45.7413 21.9266 44.192 21.9266 42.176V29.296Z" fill="#383838"/>
</svg>
