<svg width="220" height="210" viewBox="0 0 220 210" fill="none" xmlns="http://www.w3.org/2000/svg">
<rect width="220" height="210" rx="8" fill="#F1F2F4"/>
<circle cx="110.119" cy="66.5343" r="27.5343" stroke="#383838" stroke-width="4"/>
<path d="M56 158.869V164.501C56 166.364 56 167.295 56.3041 168.03C56.7101 169.011 57.4893 169.79 58.4701 170.196C59.2048 170.5 60.1362 170.5 61.9989 170.5H158.714C160.577 170.5 161.508 170.5 162.243 170.196C163.224 169.79 164.003 169.011 164.409 168.03C164.713 167.295 164.713 166.364 164.713 164.501V158.869C164.713 145.515 164.713 138.837 163.134 133.386C159.318 120.209 149.016 109.907 135.84 106.091C130.388 104.513 123.711 104.513 110.356 104.513C97.0019 104.513 90.3246 104.513 84.8732 106.091C71.6966 109.907 61.3947 120.209 57.5787 133.386C56 138.837 56 145.515 56 158.869Z" stroke="#383838" stroke-width="4"/>
<path d="M133.381 105.462L111.301 127.542C110.91 127.933 110.277 127.933 109.887 127.542L87.8066 105.462" stroke="#383838" stroke-width="4"/>
<path d="M144.299 108.311V170.5H75.9385V108.311" stroke="#383838" stroke-width="4"/>
<path d="M118.664 136.713C118.664 141.053 115.366 144.63 111.117 145.119C110.569 145.183 110.119 145.624 110.119 146.177V151.935C110.119 152.487 109.671 152.935 109.119 152.935H102.574C102.022 152.935 101.574 152.487 101.574 151.935V136.713C101.574 132.038 105.4 128.249 110.119 128.249C114.838 128.249 118.664 132.038 118.664 136.713Z" stroke="#383838" stroke-width="4"/>
</svg>
