<svg width="220" height="210" viewBox="0 0 220 210" fill="none" xmlns="http://www.w3.org/2000/svg">
<rect width="220" height="210" rx="8" fill="#F1F2F4"/>
<path d="M41.8242 42.1738H98.541V38.1738H41.8242V42.1738ZM104.541 48.1738V111H108.541V48.1738H104.541ZM98.541 117H41.8242V121H98.541V117ZM35.8242 111V48.1738H31.8242V111H35.8242ZM41.8242 117C38.5105 117 35.8242 114.314 35.8242 111H31.8242C31.8242 116.523 36.3014 121 41.8242 121V117ZM104.541 111C104.541 114.314 101.855 117 98.541 117V121C104.064 121 108.541 116.523 108.541 111H104.541ZM98.541 42.1738C101.855 42.1738 104.541 44.8601 104.541 48.1738H108.541C108.541 42.651 104.064 38.1738 98.541 38.1738V42.1738ZM41.8242 38.1738C36.3014 38.1738 31.8242 42.651 31.8242 48.1738H35.8242C35.8242 44.8601 38.5105 42.1738 41.8242 42.1738V38.1738Z" fill="#E82525"/>
<path d="M61.8398 56.7969H94.1519" stroke="#E82525" stroke-width="4" stroke-linecap="round"/>
<path d="M61.8398 73.3203H94.1519" stroke="#E82525" stroke-width="4" stroke-linecap="round"/>
<path d="M61.8398 89.5664H86.0378" stroke="#E82525" stroke-width="4" stroke-linecap="round"/>
<path d="M43.3203 57.0189L45.3773 59.0756C46.1584 59.8565 47.4246 59.8565 48.2056 59.0755L54.1756 53.1055" stroke="#E82525" stroke-width="4" stroke-linecap="round"/>
<path d="M43.3203 72.2396L45.3773 74.2963C46.1584 75.0772 47.4246 75.0772 48.2056 74.2962L54.1756 68.3262" stroke="#E82525" stroke-width="4" stroke-linecap="round"/>
<path d="M43.3203 89.3333L45.3773 91.39C46.1584 92.171 47.4246 92.1709 48.2056 91.3899L54.1756 85.4199" stroke="#E82525" stroke-width="4" stroke-linecap="round"/>
<path fill-rule="evenodd" clip-rule="evenodd" d="M142.887 63.094C153.11 63.094 161.397 54.8068 161.397 44.5841C161.397 34.3614 153.11 26.0742 142.887 26.0742C132.664 26.0742 124.377 34.3614 124.377 44.5841C124.377 54.8068 132.664 63.094 142.887 63.094ZM125.758 91.0951L116.749 95.3106L124.901 106.606C125.24 107.075 125.525 107.565 125.758 108.071V91.0951ZM94.5515 92.0146C93.9012 87.8634 96.0238 83.6132 100.021 81.743L134.982 65.3845C135.466 65.1291 135.964 64.896 136.474 64.6866L136.827 64.521C137.907 64.0158 139.033 63.7268 140.155 63.6365C141.091 63.4798 142.052 63.3982 143.031 63.3982C143.979 63.3982 144.908 63.4744 145.814 63.6211C147.011 63.6892 148.215 63.982 149.367 64.521L186.173 81.743C190.17 83.6132 192.293 87.8634 191.642 92.0146C191.591 93.7076 191.05 95.4039 189.984 96.8808L175.542 116.891C172.702 120.826 167.21 121.713 163.275 118.873C162.862 118.575 162.482 118.247 162.136 117.895C162.139 117.939 162.142 117.982 162.144 118.025L164.939 173.822C165.205 179.129 161.118 183.647 155.81 183.913C150.503 184.179 145.985 180.092 145.719 174.785L143.662 133.725L142.521 174.512C142.372 179.824 137.945 184.01 132.633 183.861C127.321 183.712 123.136 179.286 123.284 173.974L124.848 118.129C124.86 117.672 124.905 117.224 124.979 116.786C124.429 117.572 123.74 118.281 122.919 118.873C118.984 121.713 113.492 120.826 110.652 116.891L96.2099 96.8808C95.144 95.4039 94.6032 93.7077 94.5515 92.0146ZM160.304 108.369V91.0338L169.445 95.3106L161.292 106.606C160.888 107.166 160.56 107.758 160.304 108.369Z" fill="#F1F2F4"/>
<path d="M116.749 95.3106L115.901 93.4991C115.362 93.7516 114.963 94.2314 114.813 94.8081C114.664 95.3847 114.779 95.998 115.127 96.4811L116.749 95.3106ZM125.758 91.0951H127.758C127.758 90.4112 127.409 89.7747 126.832 89.4076C126.255 89.0405 125.53 88.9937 124.911 89.2836L125.758 91.0951ZM124.901 106.606L123.28 107.777H123.28L124.901 106.606ZM125.758 108.071L123.943 108.91C124.337 109.762 125.271 110.226 126.188 110.024C127.105 109.823 127.758 109.01 127.758 108.071H125.758ZM100.021 81.743L100.868 83.5545H100.868L100.021 81.743ZM94.5515 92.0146L96.5506 91.9536C96.548 91.8704 96.5403 91.7874 96.5274 91.7051L94.5515 92.0146ZM134.982 65.3845L135.83 67.196C135.858 67.1825 135.887 67.1683 135.915 67.1534L134.982 65.3845ZM136.474 64.6866L137.233 66.5366C137.263 66.5245 137.292 66.5116 137.321 66.4981L136.474 64.6866ZM136.827 64.521L137.675 66.3326L136.827 64.521ZM140.155 63.6365L140.316 65.6301C140.373 65.6255 140.429 65.6185 140.486 65.609L140.155 63.6365ZM145.814 63.6211L145.494 65.5954C145.563 65.6065 145.631 65.614 145.7 65.6179L145.814 63.6211ZM149.367 64.521L148.519 66.3326L149.367 64.521ZM186.173 81.743L185.325 83.5545L186.173 81.743ZM191.642 92.0146L189.666 91.705C189.654 91.7873 189.646 91.8703 189.643 91.9536L191.642 92.0146ZM189.984 96.8808L188.362 95.7103V95.7103L189.984 96.8808ZM175.542 116.891L177.164 118.061V118.061L175.542 116.891ZM163.275 118.873L164.446 117.252H164.446L163.275 118.873ZM162.136 117.895L163.564 116.495C162.979 115.898 162.085 115.728 161.322 116.069C160.559 116.409 160.088 117.188 160.14 118.022L162.136 117.895ZM162.144 118.025L164.141 117.925L164.141 117.925L162.144 118.025ZM164.939 173.822L162.941 173.922L164.939 173.822ZM145.719 174.785L143.722 174.885L145.719 174.785ZM143.662 133.725L145.66 133.625C145.606 132.552 144.714 131.714 143.64 131.725C142.566 131.737 141.693 132.595 141.663 133.669L143.662 133.725ZM142.521 174.512L140.521 174.456L142.521 174.512ZM123.284 173.974L121.285 173.918L123.284 173.974ZM124.848 118.129L126.847 118.185L124.848 118.129ZM124.979 116.786L126.951 117.119C127.106 116.197 126.602 115.29 125.737 114.936C124.871 114.581 123.876 114.874 123.34 115.64L124.979 116.786ZM122.919 118.873L124.089 120.495L124.089 120.495L122.919 118.873ZM110.652 116.891L112.273 115.72L110.652 116.891ZM96.2099 96.8808L94.5882 98.0512H94.5882L96.2099 96.8808ZM160.304 91.0338L161.152 89.2223C160.533 88.9324 159.808 88.9792 159.231 89.3463C158.654 89.7134 158.304 90.3499 158.304 91.0338H160.304ZM160.304 108.369H158.304C158.304 109.322 158.977 110.142 159.911 110.33C160.846 110.517 161.783 110.019 162.15 109.139L160.304 108.369ZM169.445 95.3106L171.067 96.4811C171.415 95.998 171.53 95.3847 171.381 94.8081C171.231 94.2314 170.832 93.7516 170.292 93.4991L169.445 95.3106ZM161.292 106.606L162.914 107.777H162.914L161.292 106.606ZM159.397 44.5841C159.397 53.7023 152.005 61.094 142.887 61.094V65.094C154.214 65.094 163.397 55.9114 163.397 44.5841H159.397ZM142.887 28.0742C152.005 28.0742 159.397 35.4659 159.397 44.5841H163.397C163.397 33.2568 154.214 24.0742 142.887 24.0742V28.0742ZM126.377 44.5841C126.377 35.4659 133.769 28.0742 142.887 28.0742V24.0742C131.56 24.0742 122.377 33.2568 122.377 44.5841H126.377ZM142.887 61.094C133.769 61.094 126.377 53.7023 126.377 44.5841H122.377C122.377 55.9114 131.56 65.094 142.887 65.094V61.094ZM117.597 97.1221L126.606 92.9066L124.911 89.2836L115.901 93.4991L117.597 97.1221ZM126.523 105.436L118.371 94.1401L115.127 96.4811L123.28 107.777L126.523 105.436ZM127.574 107.232C127.287 106.611 126.937 106.009 126.523 105.436L123.28 107.777C123.542 108.141 123.763 108.52 123.943 108.91L127.574 107.232ZM123.758 91.0951V108.071H127.758V91.0951H123.758ZM99.1732 79.9315C94.3485 82.189 91.7912 87.3174 92.5756 92.3242L96.5274 91.7051C96.0111 88.4095 97.6991 85.0374 100.868 83.5545L99.1732 79.9315ZM134.134 63.573L99.1732 79.9315L100.868 83.5545L135.83 67.196L134.134 63.573ZM135.714 62.8365C135.144 63.0703 134.589 63.3306 134.049 63.6157L135.915 67.1534C136.343 66.9276 136.783 66.7216 137.233 66.5366L135.714 62.8365ZM135.98 62.7095L135.626 62.875L137.321 66.4981L137.675 66.3326L135.98 62.7095ZM139.995 61.643C138.638 61.7521 137.279 62.1015 135.98 62.7095L137.675 66.3326C138.535 65.93 139.428 65.7015 140.316 65.6301L139.995 61.643ZM143.031 61.3982C141.94 61.3982 140.869 61.489 139.825 61.6641L140.486 65.609C141.312 65.4705 142.163 65.3982 143.031 65.3982V61.3982ZM146.134 61.6468C145.123 61.4831 144.086 61.3982 143.031 61.3982V65.3982C143.871 65.3982 144.694 65.4658 145.494 65.5954L146.134 61.6468ZM150.214 62.7095C148.828 62.0608 147.374 61.7067 145.928 61.6244L145.7 65.6179C146.647 65.6718 147.601 65.9033 148.519 66.3326L150.214 62.7095ZM187.021 79.9315L150.214 62.7095L148.519 66.3326L185.325 83.5545L187.021 79.9315ZM193.618 92.3241C194.403 87.3173 191.845 82.189 187.021 79.9315L185.325 83.5545C188.495 85.0374 190.183 88.4094 189.666 91.705L193.618 92.3241ZM191.606 98.0512C192.913 96.2404 193.578 94.1553 193.641 92.0756L189.643 91.9536C189.603 93.26 189.187 94.5673 188.362 95.7103L191.606 98.0512ZM177.164 118.061L191.606 98.0512L188.362 95.7103L173.92 115.72L177.164 118.061ZM162.105 120.495C166.935 123.982 173.678 122.892 177.164 118.061L173.92 115.72C171.727 118.76 167.485 119.445 164.446 117.252L162.105 120.495ZM160.709 119.296C161.133 119.729 161.599 120.13 162.105 120.495L164.446 117.252C164.124 117.02 163.831 116.766 163.564 116.495L160.709 119.296ZM164.141 117.925C164.139 117.873 164.136 117.821 164.132 117.769L160.14 118.022C160.143 118.056 160.145 118.091 160.146 118.125L164.141 117.925ZM166.936 173.722L164.141 117.925L160.146 118.125L162.941 173.922L166.936 173.722ZM155.91 185.911C162.321 185.589 167.257 180.132 166.936 173.722L162.941 173.922C163.152 178.126 159.914 181.705 155.71 181.916L155.91 185.911ZM143.722 174.885C144.043 181.295 149.5 186.232 155.91 185.911L155.71 181.916C151.506 182.126 147.927 178.889 147.717 174.684L143.722 174.885ZM141.665 133.825L143.722 174.885L147.717 174.684L145.66 133.625L141.665 133.825ZM144.52 174.568L145.662 133.781L141.663 133.669L140.521 174.456L144.52 174.568ZM132.577 185.86C138.993 186.04 144.34 180.984 144.52 174.568L140.521 174.456C140.404 178.664 136.897 181.98 132.689 181.862L132.577 185.86ZM121.285 173.918C121.106 180.334 126.161 185.681 132.577 185.86L132.689 181.862C128.481 181.744 125.166 178.237 125.284 174.03L121.285 173.918ZM122.848 118.073L121.285 173.918L125.284 174.03L126.847 118.185L122.848 118.073ZM123.006 116.454C122.917 116.983 122.864 117.523 122.848 118.073L126.847 118.185C126.857 117.821 126.892 117.466 126.951 117.119L123.006 116.454ZM124.089 120.495C125.095 119.769 125.941 118.9 126.617 117.933L123.34 115.64C122.917 116.245 122.386 116.792 121.748 117.252L124.089 120.495ZM109.03 118.061C112.516 122.892 119.259 123.982 124.089 120.495L121.748 117.252C118.709 119.445 114.467 118.76 112.273 115.72L109.03 118.061ZM94.5882 98.0512L109.03 118.061L112.273 115.72L97.8316 95.7103L94.5882 98.0512ZM92.5524 92.0756C92.6159 94.1553 93.2813 96.2405 94.5882 98.0512L97.8316 95.7103C97.0067 94.5673 96.5905 93.26 96.5506 91.9536L92.5524 92.0756ZM158.304 91.0338V108.369H162.304V91.0338H158.304ZM170.292 93.4991L161.152 89.2223L159.457 92.8453L168.597 97.1221L170.292 93.4991ZM162.914 107.777L171.067 96.4811L167.823 94.1401L159.671 105.436L162.914 107.777ZM162.15 109.139C162.346 108.669 162.6 108.212 162.914 107.777L159.671 105.436C159.176 106.121 158.773 106.847 158.459 107.598L162.15 109.139Z" fill="#E82525"/>
<path d="M61.5749 137.468L59.8302 149.421C59.5833 151.113 61.4358 152.315 62.88 151.399L69.7571 147.04C70.3915 146.638 71.1977 146.625 71.8445 147.007L79.5911 151.579C81.046 152.438 82.8444 151.218 82.5837 149.548L80.6975 137.468" fill="#F1F2F4"/>
<path d="M61.5749 137.468L59.8302 149.421C59.5833 151.113 61.4358 152.315 62.88 151.399L69.7571 147.04C70.3915 146.638 71.1977 146.625 71.8445 147.007L79.5911 151.579C81.046 152.438 82.8444 151.218 82.5837 149.548L80.6975 137.468" stroke="#E82525" stroke-width="4" stroke-linecap="round"/>
<path d="M71.1358 140.977C81.6071 140.977 90.0957 132.488 90.0957 122.017C90.0957 111.545 81.6071 103.057 71.1358 103.057C60.6645 103.057 52.1758 111.545 52.1758 122.017C52.1758 132.488 60.6645 140.977 71.1358 140.977Z" fill="#F1F2F4" stroke="#E82525" stroke-width="4"/>
<path d="M73.4201 113.584C72.7017 111.373 69.5735 111.373 68.855 113.584L67.6667 117.241H63.8213C61.4964 117.241 60.5297 120.216 62.4106 121.583L63.5862 119.965L62.4106 121.583L65.5216 123.843L64.3333 127.5C63.6149 129.712 66.1457 131.55 68.0266 130.184L71.1376 127.923L74.2486 130.184C76.1295 131.55 78.6602 129.712 77.9418 127.5L76.0397 128.118L77.9418 127.5L76.7535 123.843L79.8645 121.583C81.7454 120.216 80.7788 117.241 78.4538 117.241H74.6084L73.4201 113.584ZM75.813 124.526L75.8142 124.526C75.8138 124.526 75.8134 124.526 75.813 124.526L74.8726 123.232L75.813 124.526Z" stroke="#E82525" stroke-width="4"/>
</svg>
