<svg width="120" height="100" viewBox="0 0 120 100" fill="none" xmlns="http://www.w3.org/2000/svg">
<path d="M2.76562 28.9531H117.226" stroke="#383838" stroke-width="4" stroke-linecap="round"/>
<path d="M10.3633 7.74413V7.74413C10.3633 4.78248 12.7643 2.38159 15.7259 2.38159V2.38159C18.6877 2.38159 21.0888 4.78258 21.0888 7.74434V17.5509M21.0888 59.4331V51.0052M38.0702 7.74413V7.74413C38.0702 4.78249 40.471 2.38159 43.4327 2.38159V2.38159C46.3943 2.38159 48.7952 4.78248 48.7952 7.74413V17.5509M48.7952 59.4331V51.0052M21.0888 17.5509H48.7952M21.0888 17.5509V40.061M48.7952 17.5509V40.061M21.0888 40.061H48.7952M21.0888 40.061V51.0052M48.7952 40.061V51.0052M21.0888 51.0052H48.7952" stroke="#383838" stroke-width="4" stroke-linecap="round"/>
<path d="M2.76562 60.8916C2.76562 68.7934 9.17133 75.1992 17.0732 75.1992C24.975 75.1992 31.3807 68.7934 31.3807 60.8916C31.3807 68.7934 37.7864 75.1992 45.6883 75.1992C53.5901 75.1992 59.9958 68.7934 59.9958 60.8916C59.9958 68.7934 66.4015 75.1992 74.3034 75.1992C82.2052 75.1992 88.6109 68.7934 88.6109 60.8916C88.6109 68.7934 95.0166 75.1992 102.918 75.1992C110.82 75.1992 117.226 68.7934 117.226 60.8916" stroke="#383838" stroke-width="4" stroke-linecap="round" stroke-linejoin="round"/>
<path d="M2.76562 83.1267C2.76562 91.0286 9.17133 97.4343 17.0732 97.4343C24.975 97.4343 31.3807 91.0286 31.3807 83.1267C31.3807 91.0286 37.7864 97.4343 45.6883 97.4343C53.5901 97.4343 59.9958 91.0286 59.9958 83.1267C59.9958 91.0286 66.4015 97.4343 74.3034 97.4343C82.2052 97.4343 88.6109 91.0286 88.6109 83.1267C88.6109 91.0286 95.0166 97.4343 102.918 97.4343C110.82 97.4343 117.226 91.0286 117.226 83.1267" stroke="#383838" stroke-width="4" stroke-linecap="round" stroke-linejoin="round"/>
</svg>
