<svg width="220" height="210" viewBox="0 0 220 210" fill="none" xmlns="http://www.w3.org/2000/svg">
<rect width="220" height="210" rx="8" fill="#F1F2F4"/>
<path d="M53.2656 82.4531H167.726" stroke="#E82525" stroke-width="4" stroke-linecap="round"/>
<path d="M60.8633 61.2441V61.2441C60.8633 58.2825 63.2643 55.8816 66.2259 55.8816V55.8816C69.1877 55.8816 71.5888 58.2826 71.5888 61.2443V71.0509M71.5888 112.933V104.505M88.5702 61.2441V61.2441C88.5702 58.2825 90.971 55.8816 93.9327 55.8816V55.8816C96.8943 55.8816 99.2952 58.2825 99.2952 61.2441V71.0509M99.2952 112.933V104.505M71.5888 71.0509H99.2952M71.5888 71.0509V93.561M99.2952 71.0509V93.561M71.5888 93.561H99.2952M71.5888 93.561V104.505M99.2952 93.561V104.505M71.5888 104.505H99.2952" stroke="#E82525" stroke-width="4" stroke-linecap="round"/>
<path d="M53.2656 114.392C53.2656 122.293 59.6713 128.699 67.5732 128.699C75.475 128.699 81.8807 122.293 81.8807 114.392C81.8807 122.293 88.2864 128.699 96.1883 128.699C104.09 128.699 110.496 122.293 110.496 114.392C110.496 122.293 116.902 128.699 124.803 128.699C132.705 128.699 139.111 122.293 139.111 114.392C139.111 122.293 145.517 128.699 153.418 128.699C161.32 128.699 167.726 122.293 167.726 114.392" stroke="#E82525" stroke-width="4" stroke-linecap="round" stroke-linejoin="round"/>
<path d="M53.2656 136.627C53.2656 144.529 59.6713 150.934 67.5732 150.934C75.475 150.934 81.8807 144.529 81.8807 136.627C81.8807 144.529 88.2864 150.934 96.1883 150.934C104.09 150.934 110.496 144.529 110.496 136.627C110.496 144.529 116.902 150.934 124.803 150.934C132.705 150.934 139.111 144.529 139.111 136.627C139.111 144.529 145.517 150.934 153.418 150.934C161.32 150.934 167.726 144.529 167.726 136.627" stroke="#E82525" stroke-width="4" stroke-linecap="round" stroke-linejoin="round"/>
</svg>
