<svg width="208" height="208" viewBox="0 0 208 208" fill="none" xmlns="http://www.w3.org/2000/svg">
<rect x="0.136719" width="207.862" height="207.862" rx="103.931" fill="#F1F2F4"/>
<circle cx="102.959" cy="70.7623" r="23.6035" fill="#F1F2F4" stroke="#383838" stroke-width="3.58387"/>
<path d="M68.6445 138.358V153.1C68.6445 155.075 68.6445 156.062 69.0289 156.817C69.3671 157.481 69.9066 158.02 70.5703 158.358C71.3247 158.743 72.3124 158.743 74.2877 158.743H133.812C135.787 158.743 136.775 158.743 137.529 158.358C138.193 158.02 138.733 157.481 139.071 156.817C139.455 156.062 139.455 155.075 139.455 153.1V138.358C139.455 131.676 139.455 128.335 138.892 125.559C136.639 114.451 127.957 105.769 116.849 103.516C114.072 102.953 110.731 102.953 104.05 102.953C97.3682 102.953 94.0274 102.953 91.2511 103.516C80.1427 105.769 71.4609 114.451 69.2077 125.559C68.6445 128.335 68.6445 131.676 68.6445 138.358Z" fill="#F1F2F4" stroke="#383838" stroke-width="3.58387"/>
<path d="M131.959 41.0995C121.127 34.8769 109.573 41.3476 107.262 47.6531C116.361 49.0044 124.16 55.3098 127.626 66.1192C131.786 79.0932 146.257 80.9821 152.323 78.2797C139.758 69.2719 145.13 48.666 131.959 41.0995Z" fill="#F1F2F4" stroke="#383838" stroke-width="3.58387"/>
<path d="M83.5022 57.8826H122.17M126.652 68.6114H79.4453" stroke="#383838" stroke-width="3.58387"/>
<path d="M93.3849 102.953C93.3849 117.449 116.384 117.449 116.384 102.953M126.568 106.517V158.743H83.6523V106.518" stroke="#383838" stroke-width="3.58387"/>
</svg>
