<svg width="209" height="208" viewBox="0 0 209 208" fill="none" xmlns="http://www.w3.org/2000/svg">
<rect x="0.984375" width="207.862" height="207.862" rx="103.931" fill="#F1F2F4"/>
<path d="M73.2672 144.958H84.7037C88.0073 144.958 91.2933 144.486 94.4576 143.556L129.73 133.196C131.312 132.731 132.955 132.495 134.607 132.495H169.878C169.878 127.019 168.155 115.722 167.072 109.962C166.758 108.288 165.259 107.123 163.521 107.123H139.9C136.203 107.123 132.614 108.312 129.596 110.404C126.41 112.611 121.992 115.557 117.718 118.018C111.453 121.627 100.202 126.947 100.202 126.947M52.3324 153.443H86.1025C89.3086 153.443 92.4986 152.998 95.5773 152.122L129.796 142.384C131.335 141.946 132.93 141.724 134.533 141.724H169.879M169.879 141.724V132.74M169.879 141.724L166.107 152.94H140.066L137.097 141.724M38.769 148.518C33.8318 137.038 43.0137 122.399 49.6121 114.838C50.4831 113.84 52.1252 114.11 52.9474 115.147C56.1136 119.14 63.1047 122.895 74.4106 116.53C87.0103 109.437 90.0334 86.6051 94.9243 71.2912C95.6502 69.0182 96.9879 66.9952 98.6987 65.3022L113.711 50.4453C114.855 49.3139 116.617 49.0204 118.028 49.8105C126.156 54.3614 134.457 61.6706 136.516 64.1909L111.156 90.3272C110.21 91.3019 109.388 92.3855 108.709 93.5541L94.5186 117.971C90.8335 124.312 85.1199 129.289 78.2592 132.135L38.769 148.518ZM38.769 148.518L41.4441 154.078C42.1627 155.489 43.7913 156.217 45.3314 155.759C57.1683 152.239 75.4457 144.278 88.0323 138.073C93.6726 135.292 98.1718 130.779 101.205 125.356L115.227 100.287C115.795 99.2711 116.497 98.3319 117.314 97.4937L142.814 71.3385M136.515 64.1909L142.814 71.3385M142.814 71.3385L148.726 82.1318L131.816 98.6959L119.916 94.8244" stroke="#383838" stroke-width="4.33964"/>
</svg>
