<svg width="209" height="208" viewBox="0 0 209 208" fill="none" xmlns="http://www.w3.org/2000/svg">
<rect x="0.300781" width="207.862" height="207.862" rx="103.931" fill="#F1F2F4"/>
<path d="M116.153 139.799C123.463 133.406 127.592 125.205 127.592 114.265C127.592 101.461 121.183 90.1522 111.392 83.3603V75.3442C111.392 68.1765 105.581 62.3658 98.4137 62.3658H81.4208C74.2531 62.3658 68.4425 68.1765 68.4425 75.3442V83.3603C58.6517 90.1522 52.2422 101.461 52.2422 114.265C52.2422 125.205 56.3717 133.406 63.6817 139.799C66.1697 141.975 69.46 142.912 72.765 142.912H107.069C110.374 142.912 113.665 141.975 116.153 139.799Z" stroke="#383838" stroke-width="4.33964"/>
<path d="M99.981 83.1503H79.841C78.9451 83.1503 78.2188 82.424 78.2188 81.528V77.6241C78.2188 74.9362 80.3977 72.7572 83.0856 72.7572H96.7364C99.4243 72.7572 101.603 74.9362 101.603 77.6241V81.528C101.603 82.424 100.877 83.1503 99.981 83.1503Z" stroke="#383838" stroke-width="4.33964"/>
<rect x="70.4414" y="114.327" width="98.7461" height="15.5897" rx="3.24459" fill="#F1F2F4" stroke="#383838" stroke-width="4.33964"/>
<rect x="93.8281" y="98.7354" width="15.5897" height="44.1707" rx="3.24459" fill="#F1F2F4" stroke="#383838" stroke-width="4.33964"/>
<rect x="78.2461" y="106.527" width="15.5897" height="28.5811" rx="3.24459" fill="#F1F2F4" stroke="#383838" stroke-width="4.33964"/>
<rect x="130.203" y="98.7354" width="15.5897" height="44.1707" rx="3.24459" fill="#F1F2F4" stroke="#383838" stroke-width="4.33964"/>
<rect x="145.793" y="106.527" width="15.5897" height="28.5811" rx="3.24459" fill="#F1F2F4" stroke="#383838" stroke-width="4.33964"/>
</svg>
