<svg width="208" height="208" viewBox="0 0 208 208" fill="none" xmlns="http://www.w3.org/2000/svg">
<rect x="0.0625" width="207.862" height="207.862" rx="103.931" fill="#F1F2F4"/>
<ellipse cx="29.8802" cy="37.675" rx="29.8802" ry="37.675" transform="matrix(0.751914 0.659261 -0.664129 0.747618 122.176 38.9733)" stroke="#383838" stroke-width="3.6092"/>
<path d="M67.5396 158.618L85.5439 138.351C90.7042 132.542 99.0576 131.01 106.83 131.593C121.468 132.691 138.097 126.738 149.766 113.602C167.977 93.1016 169.182 64.5956 152.458 49.9321C135.734 35.2686 107.413 40.0004 89.2017 60.5008C77.5324 73.637 73.6538 90.7689 76.5705 105.062C78.1192 112.652 77.6279 121.076 72.4676 126.885L54.4633 147.153" stroke="#383838" stroke-width="4.33964"/>
<path d="M67.6133 132.511L80.6463 143.938L58.885 168.435C57.5612 169.925 55.273 170.068 53.7742 168.754L46.1688 162.085C44.67 160.771 44.5282 158.498 45.852 157.008L67.6133 132.511Z" stroke="#383838" stroke-width="4.33964"/>
<path d="M132.566 62.3521L98.0546 101.202M144.289 72.6297L109.777 111.48" stroke="#383838" stroke-width="4.33964" stroke-linecap="round"/>
<path d="M111.785 64.9521L141.09 90.6463M97.9804 80.4923L127.286 106.186" stroke="#383838" stroke-width="4.33964" stroke-linecap="round"/>
<circle cx="142.61" cy="124.293" r="19.4871" transform="rotate(11.4292 142.61 124.293)" fill="#F1F2F4" stroke="#383838" stroke-width="4.33964"/>
<path d="M136.792 105.887C131.474 116.46 131.042 134.331 149.45 142.907" stroke="#383838" stroke-width="4.33964"/>
</svg>
