<svg width="209" height="208" viewBox="0 0 209 208" fill="none" xmlns="http://www.w3.org/2000/svg">
<rect x="0.90625" width="207.862" height="207.862" rx="103.931" fill="#F1F2F4"/>
<path d="M84.3794 98.7464L104.432 70.8705M136.305 137.825L162.357 118.389C163.695 117.391 164.257 115.656 163.759 114.062L145.192 54.725C144.786 53.425 143.735 52.4279 142.416 52.0894L124.304 47.4414C122.732 47.038 121.074 47.6414 120.129 48.9608L104.432 70.8705M104.432 70.8705L88.9887 48.9766C88.0517 47.6482 86.3941 47.033 84.8173 47.4284L66.2379 52.088C64.8886 52.4264 63.8184 53.4522 63.4232 54.786L45.8478 114.098C45.3805 115.676 45.9439 117.377 47.2602 118.364L73.2241 137.825M73.2241 113.596V102.68C73.2241 100.508 74.9853 98.7464 77.1579 98.7464H132.371C134.543 98.7464 136.305 100.508 136.305 102.68V113.596M73.2241 113.596H136.305M73.2241 113.596V127.925M136.305 113.596V127.925M136.305 127.925V154.564C136.305 156.737 134.543 158.498 132.371 158.498H84.3794M136.305 127.925H84.3794M73.2241 127.925V154.564C73.2241 156.737 74.9853 158.498 77.1579 158.498H84.3794M73.2241 127.925H84.3794M84.3794 127.925V158.498" stroke="#383838" stroke-width="4.33964"/>
</svg>
