<svg width="209" height="208" viewBox="0 0 209 208" fill="none" xmlns="http://www.w3.org/2000/svg">
<rect x="0.675781" width="207.862" height="207.862" rx="103.931" fill="#F1F2F4"/>
<ellipse cx="82.5144" cy="77.9465" rx="19.4871" ry="18.188" fill="#F1F2F4" stroke="#383838" stroke-width="4.33964"/>
<path d="M52.6367 132.515V143.52C52.6367 145.125 52.6367 145.927 52.949 146.54C53.2238 147.079 53.6621 147.517 54.2013 147.792C54.8142 148.104 55.6167 148.104 57.2215 148.104H105.214C106.819 148.104 107.621 148.104 108.234 147.792C108.773 147.517 109.212 147.079 109.487 146.54C109.799 145.927 109.799 145.125 109.799 143.52V132.515C109.799 127.257 109.799 124.629 109.37 122.442C107.576 113.302 100.43 106.157 91.2906 104.363C89.1037 103.934 86.4751 103.934 81.2178 103.934C75.9605 103.934 73.3318 103.934 71.145 104.363C62.0055 106.157 54.86 113.302 53.066 122.442C52.6367 124.629 52.6367 127.257 52.6367 132.515Z" fill="#F1F2F4" stroke="#383838" stroke-width="4.33964"/>
<path d="M66.3767 67.55H98.3008M102.002 75.3449H63.0273" stroke="#383838" stroke-width="4.33964"/>
<path d="M72.0503 103.934C72.0503 115.411 90.3853 115.411 90.3853 103.934M52.6367 128.628H64.3008V148.104H98.4943V128.628H109.799" stroke="#383838" stroke-width="4.33964"/>
<circle cx="126.706" cy="81.8409" r="19.4871" fill="#F1F2F4" stroke="#383838" stroke-width="4.33964"/>
<path d="M96.8281 135.11V146.115C96.8281 147.72 96.8281 148.522 97.1404 149.135C97.4152 149.674 97.8535 150.113 98.3927 150.387C99.0057 150.7 99.8081 150.7 101.413 150.7H149.406C151.01 150.7 151.813 150.7 152.426 150.387C152.965 150.113 153.403 149.674 153.678 149.135C153.99 148.522 153.99 147.72 153.99 146.115V135.11C153.99 129.853 153.99 127.224 153.561 125.037C151.767 115.898 144.621 108.752 135.482 106.958C133.295 106.529 130.666 106.529 125.409 106.529C120.152 106.529 117.523 106.529 115.336 106.958C106.197 108.752 99.0514 115.898 97.2574 125.037C96.8281 127.224 96.8281 129.853 96.8281 135.11Z" fill="#F1F2F4" stroke="#383838" stroke-width="4.33964"/>
<path d="M147.949 56.4933C139.204 51.7345 129.877 56.6831 128.012 61.5053C135.357 62.5387 141.653 67.3609 144.451 75.6276C147.809 85.5497 159.491 86.9942 164.388 84.9275C154.244 78.0387 158.581 62.28 147.949 56.4933Z" fill="#F1F2F4" stroke="#383838" stroke-width="4.33964"/>
<path d="M110.568 70.1541H142.492M146.193 77.9489H107.219" stroke="#383838" stroke-width="4.33964"/>
<path d="M114.879 106.529C114.879 118.006 132.981 118.006 132.981 106.529M140.996 109.351V150.7H107.219V109.352" stroke="#383838" stroke-width="4.33964"/>
</svg>
