<svg width="209" height="208" viewBox="0 0 209 208" fill="none" xmlns="http://www.w3.org/2000/svg">
<rect x="0.828125" width="207.862" height="207.862" rx="103.931" fill="#F1F2F4"/>
<path d="M47.5977 83.1415H164.52" stroke="#383838" stroke-width="4.33964" stroke-linecap="round"/>
<path d="M55.3945 60.1841V60.0053C55.3945 57.0018 57.8294 54.5669 60.8329 54.5669V54.5669C63.8365 54.5669 66.2713 57.0018 66.2713 60.0053V70.4565M66.2713 114.327V105.499M83.4923 60.1841V60.0051C83.4923 57.0017 85.9271 54.5669 88.9305 54.5669V54.5669C91.934 54.5669 94.3687 57.0017 94.3687 60.0051V70.4565M94.3687 114.327V105.499M66.2713 70.4565H94.3687M66.2713 70.4565V94.0354M94.3687 70.4565V94.0354M66.2713 94.0354H94.3687M66.2713 94.0354V105.499M94.3687 94.0354V105.499M66.2713 105.499H94.3687" stroke="#383838" stroke-width="4.33964" stroke-linecap="round"/>
<path d="M47.5977 114.325C47.5977 122.935 54.1412 129.915 62.213 129.915C70.2848 129.915 76.8283 122.935 76.8283 114.325C76.8283 122.935 83.3718 129.915 91.4436 129.915C99.5154 129.915 106.059 122.935 106.059 114.325C106.059 122.935 112.602 129.915 120.674 129.915C128.746 129.915 135.29 122.935 135.29 114.325C135.29 122.935 141.833 129.915 149.905 129.915C157.977 129.915 164.52 122.935 164.52 114.325" stroke="#383838" stroke-width="4.33964" stroke-linecap="round" stroke-linejoin="round"/>
<path d="M47.5977 135.113C47.5977 143.723 54.1412 150.702 62.213 150.702C70.2848 150.702 76.8283 143.723 76.8283 135.113C76.8283 143.723 83.3718 150.702 91.4436 150.702C99.5154 150.702 106.059 143.723 106.059 135.113C106.059 143.723 112.602 150.702 120.674 150.702C128.746 150.702 135.29 143.723 135.29 135.113C135.29 143.723 141.833 150.702 149.905 150.702C157.977 150.702 164.52 143.723 164.52 135.113" stroke="#383838" stroke-width="4.33964" stroke-linecap="round" stroke-linejoin="round"/>
</svg>
