<svg width="209" height="208" viewBox="0 0 209 208" fill="none" xmlns="http://www.w3.org/2000/svg">
<rect x="0.753906" width="207.862" height="207.862" rx="103.931" fill="#F1F2F4"/>
<circle cx="104.689" cy="67.5484" r="20.7862" stroke="#383838" stroke-width="4.33964"/>
<path d="M63.1211 137.701V143.37C63.1211 144.914 63.1211 145.686 63.3925 146.288C63.7001 146.969 64.246 147.515 64.9277 147.823C65.5294 148.094 66.3014 148.094 67.8452 148.094H141.542C143.086 148.094 143.858 148.094 144.459 147.823C145.141 147.515 145.687 146.969 145.995 146.288C146.266 145.686 146.266 144.914 146.266 143.37V137.701C146.266 127.573 146.266 122.509 145.082 118.372C142.168 108.188 134.207 100.227 124.023 97.3127C119.885 96.1288 114.821 96.1288 104.694 96.1288C94.5657 96.1288 89.5018 96.1288 85.3642 97.3127C75.18 100.227 67.2191 108.188 64.305 118.372C63.1211 122.509 63.1211 127.573 63.1211 137.701Z" stroke="#383838" stroke-width="4.33964"/>
<path d="M122.148 97.7257L103.958 117.315C103.655 117.641 103.138 117.641 102.834 117.315L84.6445 97.7257" stroke="#383838" stroke-width="4.33964"/>
<path d="M130.669 98.7289V148.096H78.7031V98.7289" stroke="#383838" stroke-width="4.33964"/>
<path d="M109.891 124.156C109.891 127.351 107.387 129.985 104.161 130.349C103.74 130.396 103.395 130.735 103.395 131.159V135.341C103.395 135.764 103.051 136.108 102.628 136.108H97.6663C97.2427 136.108 96.8992 135.764 96.8992 135.341V124.156C96.8992 120.712 99.8075 117.92 103.395 117.92C106.982 117.92 109.891 120.712 109.891 124.156Z" stroke="#383838" stroke-width="4.33964"/>
</svg>
