<svg width="18" height="18" viewBox="0 0 18 18" fill="none" xmlns="http://www.w3.org/2000/svg">
<path d="M9 17C13.4183 17 17 13.4183 17 9C17 4.58172 13.4183 1 9 1C4.58172 1 1 4.58172 1 9C1 13.4183 4.58172 17 9 17Z" stroke="black" stroke-width="1.125"/>
<path d="M7.86158 6.36319C8.36799 5.4544 8.62159 5 9 5C9.37841 5 9.63201 5.4544 10.1384 6.36319L10.2696 6.59839C10.4136 6.85679 10.4856 6.98559 10.5976 7.07039C10.7096 7.15599 10.8504 7.18799 11.1296 7.25119L11.384 7.30878C12.3681 7.53118 12.8601 7.64238 12.9769 8.01918C13.0945 8.39518 12.7585 8.78718 12.0881 9.57197L11.9144 9.77517C11.724 9.99757 11.6288 10.1096 11.5864 10.2472C11.5424 10.3848 11.5568 10.5336 11.5864 10.8312L11.612 11.1016C11.7136 12.148 11.764 12.6711 11.4576 12.9039C11.1512 13.1359 10.6912 12.9247 9.76961 12.5008L9.53121 12.3904C9.2696 12.2704 9.1392 12.2096 9 12.2096C8.8616 12.2096 8.7304 12.2704 8.46879 12.3904L8.23039 12.5008C7.30877 12.9247 6.84876 13.1367 6.54236 12.9039C6.23595 12.6719 6.28635 12.148 6.38796 11.1016L6.41356 10.8312C6.44316 10.5336 6.45756 10.3848 6.41356 10.2472C6.37116 10.1096 6.27595 9.99757 6.08555 9.77517L5.91195 9.57197C5.24154 8.78798 4.90553 8.39598 5.02313 8.01918C5.13994 7.64318 5.63114 7.53118 6.61516 7.30878L6.87036 7.25119C7.15037 7.18719 7.28957 7.15599 7.40237 7.07119C7.51438 6.98559 7.58638 6.85679 7.73038 6.59919L7.86158 6.36319Z" stroke="black" stroke-width="1.125"/>
</svg>
