<svg width="71" height="71" viewBox="0 0 71 71" fill="none" xmlns="http://www.w3.org/2000/svg">
<path d="M1.36015 4.80975C1.36015 2.90398 2.90508 1.35905 4.81085 1.35905L66.9235 1.35905C68.8293 1.35905 70.3742 2.90398 70.3742 4.80975V66.9224C70.3742 68.8282 68.8293 70.3731 66.9235 70.3731H4.81085C2.90508 70.3731 1.36015 68.8282 1.36015 66.9224L1.36015 4.80975Z" fill="#F1F2F4"/>
<path d="M1.36015 4.80975C1.36015 2.90398 2.90508 1.35905 4.81085 1.35905L66.9235 1.35905C68.8293 1.35905 70.3742 2.90398 70.3742 4.80975V66.9224C70.3742 68.8282 68.8293 70.3731 66.9235 70.3731H4.81085C2.90508 70.3731 1.36015 68.8282 1.36015 66.9224L1.36015 4.80975Z" stroke="#F1F2F4" stroke-width="0.985915"/>
<path d="M32.0706 34.0334L36.7655 27.5069M44.2277 43.1828L50.4264 38.5584C50.6804 38.3689 50.7871 38.0397 50.6925 37.7373L46.2796 23.6339C46.2024 23.3873 46.0031 23.1981 45.7528 23.1339L41.3023 21.9918C41.004 21.9152 40.6894 22.0297 40.5101 22.28L36.7655 27.5069M36.7655 27.5069L33.0807 22.283C32.9029 22.031 32.5884 21.9143 32.2893 21.9893L27.7265 23.1336C27.4705 23.1978 27.2674 23.3925 27.1924 23.6455L23.0147 37.7443C22.926 38.0435 23.0329 38.3664 23.2827 38.5535L29.4588 43.1828M29.4588 37.5102V34.7798C29.4588 34.3676 29.7929 34.0334 30.2051 34.0334H43.4814C43.8936 34.0334 44.2277 34.3676 44.2277 34.7798V37.5102M29.4588 37.5102H44.2277M29.4588 37.5102V40.8649M44.2277 37.5102V40.8649M44.2277 40.8649V47.2767C44.2277 47.6889 43.8936 48.023 43.4814 48.023H32.0706M44.2277 40.8649H32.0706M29.4588 40.8649V47.2767C29.4588 47.6889 29.7929 48.023 30.2051 48.023H32.0706M29.4588 40.8649H32.0706M32.0706 40.8649V48.023" stroke="#383838" stroke-width="1.57746"/>
</svg>
