<svg width="68" height="71" viewBox="0 0 68 71" fill="none" xmlns="http://www.w3.org/2000/svg">
<rect x="-1.63985" y="1.35899" width="69.0141" height="69.0141" rx="3.4507" fill="#F1F2F4"/>
<rect x="-1.63985" y="1.35899" width="69.0141" height="69.0141" rx="3.4507" stroke="#F1F2F4" stroke-width="0.985915"/>
<path d="M29.125 37.553L32.1169 40.545L31.065 41.5968L28.0731 38.6049L29.125 37.553ZM36.0789 23.8673C36.9749 23.8673 37.8358 23.9803 38.6617 24.2062C39.4876 24.4322 40.2629 24.7594 40.9875 25.188C41.7121 25.6165 42.3666 26.1229 42.951 26.7073C43.5353 27.2917 44.0418 27.9461 44.4703 28.6708C44.8988 29.3954 45.2261 30.1706 45.452 30.9965C45.678 31.8224 45.7948 32.6873 45.8026 33.5911C45.8026 34.7286 45.6156 35.8155 45.2416 36.8518C44.8677 37.8881 44.3456 38.827 43.6756 39.6684C43.0055 40.5099 42.203 41.2267 41.268 41.8189C40.333 42.411 39.3162 42.8318 38.2176 43.0811C38.2877 43.6577 38.3228 44.2342 38.3228 44.8108C38.3228 45.2238 38.2449 45.6094 38.0891 45.9679C37.9332 46.3263 37.719 46.6457 37.4463 46.9262C37.1736 47.2067 36.858 47.421 36.4996 47.569C36.1412 47.717 35.7516 47.795 35.3309 47.8027C34.092 47.8027 32.8999 47.643 31.7546 47.3236C30.6092 47.0041 29.534 46.5522 28.5289 45.9679C27.5238 45.3835 26.6161 44.6823 25.8058 43.8641C24.9955 43.046 24.2942 42.1383 23.7021 41.141C23.1099 40.1437 22.658 39.0724 22.3464 37.927C22.0347 36.7817 21.875 35.5857 21.8672 34.3391C21.8672 33.9261 21.9451 33.5404 22.1009 33.182C22.2568 32.8236 22.471 32.5042 22.7437 32.2237C23.0164 31.9432 23.332 31.7289 23.6904 31.5809C24.0488 31.4328 24.4384 31.3549 24.8591 31.3471C25.4357 31.3471 26.0123 31.3822 26.5888 31.4523C26.8382 30.3459 27.2589 29.3291 27.851 28.4019C28.4432 27.4748 29.16 26.6761 30.0015 26.0061C30.843 25.336 31.7819 24.8101 32.8181 24.4283C33.8544 24.0465 34.9413 23.8595 36.0789 23.8673ZM40.2161 30.5173C40.5901 30.79 40.9992 30.9965 41.4433 31.1368C41.8874 31.277 42.3432 31.3471 42.8107 31.3471C43.2003 31.3471 43.5821 31.3004 43.9561 31.2069C43.8002 30.6771 43.5899 30.1706 43.3249 29.6875C43.06 29.2045 42.7523 28.7526 42.4017 28.3318L40.2161 30.5173ZM41.3381 27.2683C40.9174 26.9177 40.4655 26.6099 39.9824 26.345C39.4993 26.0801 38.9929 25.8697 38.4631 25.7139C38.3696 26.0879 38.3228 26.4697 38.3228 26.8592C38.3228 27.3267 38.3929 27.7825 38.5332 28.2266C38.6734 28.6708 38.8799 29.0798 39.1526 29.4538L41.3381 27.2683ZM37.0022 25.4217C36.8463 25.3983 36.6944 25.3827 36.5463 25.375C36.3983 25.3672 36.2425 25.3633 36.0789 25.3633C35.1127 25.3633 34.1816 25.5269 33.2856 25.8541C32.3896 26.1814 31.5676 26.6567 30.8196 27.28L36.0789 32.5392L38.0891 30.529C37.6761 30.007 37.3645 29.4343 37.1541 28.811C36.9437 28.1877 36.8346 27.5371 36.8268 26.8592C36.8268 26.3684 36.8853 25.8892 37.0022 25.4217ZM29.7561 28.3318C29.3431 28.8227 28.9925 29.3525 28.7042 29.9213C28.4159 30.4901 28.2017 31.0939 28.0614 31.7328C29.1289 31.9821 30.1534 32.3678 31.1352 32.8898C32.1169 33.4119 33.0168 34.0391 33.8349 34.7715L35.027 33.5911L29.7561 28.3318ZM35.3309 46.3068C35.5412 46.3068 35.736 46.2678 35.9152 46.1899C36.0944 46.112 36.2503 46.0068 36.3827 45.8744C36.5152 45.7419 36.6243 45.5822 36.71 45.3952C36.7957 45.2082 36.8346 45.0134 36.8268 44.8108C36.8268 43.7122 36.6866 42.6526 36.4061 41.6319C36.1256 40.6112 35.7205 39.6606 35.1906 38.7802C34.6608 37.8998 34.0375 37.0933 33.3207 36.3609C32.6039 35.6285 31.7974 35.0013 30.9014 34.4793C30.0054 33.9573 29.0509 33.556 28.038 33.2755C27.0252 32.995 25.9655 32.8509 24.8591 32.8431C24.6487 32.8431 24.454 32.882 24.2748 32.96C24.0956 33.0379 23.9397 33.1431 23.8073 33.2755C23.6748 33.408 23.5657 33.5677 23.48 33.7547C23.3943 33.9417 23.3554 34.1365 23.3632 34.3391C23.3632 35.4377 23.5034 36.4973 23.7839 37.518C24.0644 38.5387 24.4695 39.4892 24.9994 40.3697C25.5292 41.2501 26.1525 42.0565 26.8693 42.7889C27.5861 43.5213 28.3926 44.1485 29.2886 44.6706C30.1846 45.1926 31.1391 45.5939 32.152 45.8744C33.1648 46.1548 34.2245 46.299 35.3309 46.3068ZM34.8984 35.835C35.6308 36.6531 36.2581 37.553 36.7801 38.5348C37.3021 39.5165 37.6878 40.5411 37.9371 41.6085C38.5682 41.4683 39.1682 41.254 39.737 40.9657C40.3057 40.6774 40.8395 40.3268 41.3381 39.9139L36.0789 34.6429L34.8984 35.835ZM42.39 38.8503C43.0055 38.1101 43.4769 37.292 43.8041 36.396C44.1314 35.5 44.2989 34.565 44.3067 33.5911C44.3067 33.4352 44.3028 33.2833 44.295 33.1353C44.2872 32.9872 44.2716 32.8314 44.2482 32.6678C43.7807 32.7847 43.3016 32.8431 42.8107 32.8431C42.1406 32.8431 41.4939 32.7379 40.8706 32.5275C40.2473 32.3172 39.6707 32.0016 39.1409 31.5809L37.1307 33.5911L42.39 38.8503Z" fill="#383838"/>
</svg>
