<svg width="70" height="70" viewBox="0 0 70 70" fill="none" xmlns="http://www.w3.org/2000/svg">
<rect x="0.492958" y="0.492958" width="69.0141" height="69.0141" rx="3.4507" fill="#F1F2F4"/>
<rect x="0.492958" y="0.492958" width="69.0141" height="69.0141" rx="3.4507" stroke="#F1F2F4" stroke-width="0.985915"/>
<path d="M26.2537 38.8064C25.9198 39.0963 25.4109 39.0675 25.1129 38.7384C24.9682 38.5795 24.8924 38.3697 24.9023 38.155C24.9121 37.9403 25.0066 37.7383 25.1651 37.5932C25.2523 37.5125 26.2283 36.6487 27.9894 36.2182C29.7546 35.7868 32.3001 35.793 35.5175 37.4458L35.5175 37.4458C41.1826 40.3588 45.5477 37.8772 45.7203 37.7753L26.2537 38.8064ZM26.2537 38.8064L26.2543 38.8061L26.2636 38.7981L26.2637 38.798C26.326 38.7443 27.0998 38.0778 28.5299 37.7692C29.9592 37.4608 32.0533 37.5079 34.7602 38.8973C36.7445 39.919 38.8497 40.4284 41.0703 40.4881L41.0703 40.4881H41.0729C44.2754 40.4881 46.4017 39.2658 46.5512 39.1751C46.9438 38.9467 47.0668 38.4454 46.8387 38.0617L46.8387 38.0616C46.6097 37.677 46.1067 37.5468 45.7203 37.7752L26.2537 38.8064ZM25.1135 43.9151C25.4146 44.2469 25.9309 44.2729 26.2645 43.974L26.2784 43.9615L26.2785 43.9614C26.4053 43.8544 27.1717 43.2384 28.5301 42.9453C29.9595 42.6369 32.0536 42.684 34.7603 44.0734C36.7445 45.0951 38.8491 45.6045 41.0703 45.6641V45.6642H41.0729C44.2765 45.6642 46.4025 44.4405 46.5505 44.3512C46.9432 44.1229 47.0669 43.6215 46.8381 43.2371L46.8378 43.2367C46.7265 43.0517 46.5468 42.9179 46.3376 42.8645C46.1284 42.811 45.9066 42.8421 45.7202 42.9511L45.7198 42.9513C45.5481 43.0527 41.1832 45.5351 35.5175 42.6224L35.5175 42.6224C32.3002 40.9693 29.7547 40.9631 27.9897 41.3945C26.228 41.8251 25.2521 42.6893 25.1659 42.7685C25.0872 42.8403 25.0234 42.927 24.9782 43.0235C24.9329 43.12 24.9071 43.2245 24.9023 43.331C24.8974 43.4375 24.9136 43.5439 24.9498 43.6442C24.9861 43.7444 25.0417 43.8364 25.1135 43.9151ZM25.1135 43.9151C25.1135 43.9151 25.1135 43.9151 25.1134 43.9151L25.1865 43.8488L25.1136 43.9153C25.1136 43.9152 25.1135 43.9152 25.1135 43.9151ZM30.9374 35.0133V35.1031L31.0268 35.1115C31.4827 35.1542 31.9583 35.2278 32.4523 35.3379L32.5724 35.3646V35.2416V33.2991H41.2895V37.8348V37.9365L41.3912 37.9334C41.8784 37.9182 42.3638 37.8669 42.8435 37.78L42.9245 37.7653V37.683V27.3056C42.9245 26.4024 42.5657 25.5362 41.927 24.8975C41.2884 24.2589 40.4222 23.9001 39.519 23.9001C38.6158 23.9001 37.7496 24.2589 37.1109 24.8975C36.4722 25.5362 36.1134 26.4024 36.1134 27.3056V27.8807C36.1134 28.0975 36.1996 28.3054 36.3529 28.4588C36.5062 28.6121 36.7141 28.6982 36.9309 28.6982C37.1477 28.6982 37.3557 28.6121 37.509 28.4588C37.6623 28.3054 37.7484 28.0975 37.7484 27.8807V27.3056C37.7484 26.836 37.935 26.3857 38.267 26.0536C38.599 25.7216 39.0494 25.535 39.519 25.535C39.9885 25.535 40.4389 25.7216 40.7709 26.0536C41.103 26.3857 41.2895 26.836 41.2895 27.3056V31.6642H32.5724V27.3056C32.5724 26.4024 32.2136 25.5362 31.5749 24.8975C30.9363 24.2589 30.07 23.9001 29.1668 23.9001C28.2636 23.9001 27.3974 24.2589 26.7588 24.8975C26.1201 25.5362 25.7613 26.4024 25.7613 27.3056V27.8807C25.7613 28.0975 25.8475 28.3054 26.0008 28.4588C26.1541 28.6121 26.362 28.6982 26.5788 28.6982C26.7956 28.6982 27.0036 28.6121 27.1569 28.4588C27.3102 28.3054 27.3963 28.0975 27.3963 27.8807V27.3056C27.3963 26.836 27.5828 26.3857 27.9149 26.0536C28.2469 25.7216 28.6973 25.535 29.1668 25.535C29.6364 25.535 30.0868 25.7216 30.4188 26.0536C30.7508 26.3857 30.9374 26.836 30.9374 27.3056V35.0133Z" fill="#383838" stroke="#383838" stroke-width="0.197183"/>
</svg>
