<svg width="16" height="16" viewBox="0 0 16 16" fill="none" xmlns="http://www.w3.org/2000/svg">
<path d="M7.65265 4.88109V7.99359C7.65265 8.25881 7.758 8.51316 7.94554 8.7007L9.58798 10.3431M8.00033 14.8813C9.90699 14.8813 11.5307 14.2112 12.8713 12.8711C14.212 11.531 14.8821 9.90732 14.8815 8.00008C14.8809 6.09285 14.2109 4.46917 12.8713 3.12906C11.5318 1.78895 9.90813 1.1189 8.00033 1.1189C6.09252 1.1189 4.46884 1.78924 3.12931 3.12992C1.78977 4.47061 1.11971 6.09399 1.11914 8.00008C1.11857 9.90617 1.78891 11.5298 3.13017 12.8711C4.47142 14.2124 6.09481 14.8824 8.00033 14.8813Z" stroke="#E82525" stroke-width="1.5" stroke-linecap="round"/>
</svg>
