<svg width="220" height="210" viewBox="0 0 220 210" fill="none" xmlns="http://www.w3.org/2000/svg">
<rect width="220" height="210" rx="8" fill="#F1F2F4"/>
<path d="M89.7956 101.497L110.097 72.8045M142.363 141.721L168.772 121.69C170.11 120.675 170.671 118.932 170.177 117.327L151.355 56.1645C150.947 54.8398 149.883 53.8205 148.541 53.4706L130.257 48.7C128.644 48.2789 126.938 48.9032 125.977 50.2664L110.097 72.8045M110.097 72.8045L94.4711 50.2822C93.5191 48.9099 91.8147 48.2736 90.1963 48.6863L71.4385 53.4693C70.0671 53.8189 68.9826 54.8673 68.5866 56.226L50.7683 117.364C50.3054 118.952 50.8681 120.662 52.1841 121.664L78.5022 141.721M78.5022 116.782V105.497C78.5022 103.288 80.2931 101.497 82.5022 101.497H138.363C140.572 101.497 142.363 103.288 142.363 105.497V116.782M78.5022 116.782H142.363M78.5022 116.782V131.531M142.363 116.782V131.531M142.363 131.531V159C142.363 161.209 140.572 163 138.363 163H89.7956M142.363 131.531H89.7956M78.5022 131.531V159C78.5022 161.209 80.2931 163 82.5022 163H89.7956M78.5022 131.531H89.7956M89.7956 131.531V163" stroke="#E82525" stroke-width="4"/>
</svg>
