<svg width="40" height="40" viewBox="0 0 40 40" fill="none" xmlns="http://www.w3.org/2000/svg">
<rect width="40" height="40" rx="20" fill="white"/>
<path d="M30.8953 27.4145H28.2713C27.279 27.4145 26.98 26.6107 25.2012 24.8307C23.6466 23.3325 22.99 23.1462 22.5968 23.1462C22.0529 23.1462 21.9046 23.2957 21.9046 24.0442V26.4037C21.9046 27.0419 21.6976 27.4156 20.0303 27.4156C18.4128 27.3069 16.8442 26.8156 15.4538 25.9819C14.0634 25.1483 12.891 23.9962 12.033 22.6207C9.99666 20.0848 8.57934 17.1093 7.89355 13.9301C7.89355 13.5368 8.04304 13.1804 8.79274 13.1804H11.4144C12.0882 13.1804 12.3308 13.4805 12.5953 14.1739C13.8682 17.9201 16.0403 21.1788 16.9222 21.1788C17.2603 21.1788 17.4075 21.0293 17.4075 20.1865V16.3275C17.2959 14.5671 16.3611 14.4188 16.3611 13.7818C16.3729 13.6137 16.4498 13.4569 16.5754 13.3446C16.701 13.2323 16.8654 13.1734 17.0338 13.1804H21.1548C21.7183 13.1804 21.9046 13.461 21.9046 14.1348V19.3436C21.9046 19.9059 22.146 20.0922 22.3162 20.0922C22.6543 20.0922 22.9141 19.9059 23.5339 19.2873C24.8619 17.6667 25.9472 15.8617 26.7558 13.9289C26.8382 13.6966 26.9945 13.4977 27.2007 13.3627C27.4069 13.2277 27.6517 13.1641 27.8976 13.1815H30.5204C31.3069 13.1815 31.4736 13.5748 31.3069 14.1359C30.3527 16.2727 29.1723 18.3011 27.7861 20.1865C27.5032 20.6177 27.3905 20.8419 27.7861 21.3478C28.0459 21.7411 28.9658 22.5092 29.5833 23.2393C30.4825 24.1362 31.2287 25.1734 31.7933 26.3094C32.0187 27.0408 31.6438 27.4145 30.8953 27.4145Z" fill="#383838"/>
</svg>
